<svg xmlns="http://www.w3.org/2000/svg" xmlns:xlink="http://www.w3.org/1999/xlink" width="1024" height="1024" viewBox="0 0 1024 1024" fill="none">
<path d="M0 0L0 1024L1024 1024L1024 0L0 0Z"   fill="#FFFFFF" fill-opacity="0">
</path>
<g opacity="0.05">
<path d="M447.1 248.05C509.15 187.71 524.62 197.61 575.59 201.6C626.56 205.59 685.63 162 705.47 149C725.31 136 904.53 51.69 950.35 303.51C957.59 412.38 963.61 530.51 912.91 575.24C862.21 619.97 913.84 660.15 950.35 664.62C986.86 669.09 933.28 745.53 849 778.9C792.88 804.06 430.19 876.18 213 802C108.11 757.12 84.47 614.86 76.8 581.77C69.12 548.67 19.18 333.15 160.4 303.51C301.62 273.87 385.05 308.39 447.1 248.05Z"   fill="#47B0F1" >
</path>
</g>
<g opacity="0.1">
<path d="M186.5 315L155 315C151.226 314.998 148.129 317.988 148 321.76L148 322C147.998 325.774 150.988 328.871 154.76 329L158 329L158 329.15C161.49 329.866 163.997 332.937 164 336.5L164 337.5C164 341.639 160.639 345 156.5 345L77.5 345C73.3606 345 70 341.639 70 337.5L70 336.5C70 332.361 73.3606 329 77.5 329L109 329C112.774 329.002 115.871 326.012 116 322.24L116 322C116.002 318.226 113.012 315.129 109.24 315L106 315L106 314.85C102.508 314.137 99.9993 311.065 100 307.5L100 306.5C100 302.361 103.361 299 107.5 299L186.5 299C190.639 299 194 302.361 194 306.5L194 307.5C194 311.639 190.639 315 186.5 315Z"   fill="url(#linear_fill_I4BQML4dtuT5zqH6Royop)" >
</path>
</g>
<g opacity="0.1">
<path d="M806 145L806 144.85C802.508 144.137 799.999 141.065 800 137.5L800 136.5C800 132.361 803.361 129 807.5 129L886.5 129C890.639 129 894 132.361 894 136.5L894 137.5C894 141.639 890.639 145 886.5 145L855 145C851.226 144.998 848.129 147.988 848 151.76L848 152C847.998 155.774 850.988 158.871 854.76 159L858 159L858 159.15C861.49 159.866 863.997 162.937 864 166.5L864 167.5C864 171.639 860.639 175 856.5 175L777.5 175C773.361 175 770 171.639 770 167.5L770 166.5C770 162.361 773.361 159 777.5 159L809 159C812.774 159.002 815.871 156.012 816 152.24L816 152C816.002 148.226 813.012 145.129 809.24 145L806 145Z"   fill="url(#linear_fill_4mCx8fi-2Eh8EKnmWpSW0)" >
</path>
</g>
<path d="M992 795C992 819.23 949.55 839.8 890.61 847.13C877.61 850.88 863.2 854.43 847.45 857.75C847.818 859.813 848.002 861.904 848 864C848 915.91 735.18 958 596 958C471.35 958 367.83 924.24 347.59 879.89C180.2 867.13 62 835.72 62 799C62 751 264.37 712 514.52 712C645.62 712 763.78 722.79 846.3 740C927.06 740.65 992 765 992 795Z"   fill="url(#linear_fill_1ne9d6bTTak2aoJqKW4vy)" >
</path>
<path d="M686.61 226.65L686.61 226.55C681.28 211.55 663.91 204.44 649.17 206.62C660.1 199.83 678.17 198.02 686.61 208.44L686.61 208.53C695.07 198.2 713.2 199.92 724.04 206.71C709.32 204.63 691.95 211.71 686.61 226.64L686.61 226.65Z"   fill="url(#linear_fill_hC1th1TZz4iPNlNzFO_bD)" >
</path>
<path d="M770 214.11L770 214C766.3 203.58 754.27 198.69 744.06 200.19C751.63 195.48 764.13 194.19 770 201.45L770 201.51C775.87 194.35 788.44 195.51 796 200.25C785.79 198.81 773.76 203.71 770 214.07L770 214.11Z"   fill="url(#linear_fill_o_MYiBmOIcUj-onaWljzf)" >
</path>
<path d="M735.24 179.63L735.24 179.57C731.54 169.14 719.51 164.25 709.24 165.75C716.82 161.04 729.32 159.75 735.24 167.01L735.24 167.07C741.11 159.92 753.67 161.07 761.24 165.82C751.02 164.37 739 169.27 735.24 179.63Z"   fill="url(#linear_fill_9Ltw7wgDv4wiZs1wX_q5F)" >
</path>
<path d="M840.72 220.07L840.72 220.07C838.16 212.84 829.82 209.44 822.72 210.49C827.97 207.23 836.63 206.35 840.72 211.36L840.72 211.36C844.8 206.36 853.5 207.23 858.72 210.49C851.63 209.49 843.29 212.89 840.72 220.07Z"   fill="url(#linear_fill_LF34OFj_Porgk2wZAG4lO)" >
</path>
<path d="M119.48 673.39L197 673.39L197 747.09L237.36 747.09L237.36 673.39L261.86 673.39L261.86 635.39L237.36 635.39L237.36 452.68L197 452.68L197 635.38L140.71 635.38C136.21 635.38 132.543 634.29 129.71 632.11C125.983 629.017 124.12 625.413 124.12 621.3C124.294 618.261 124.627 615.234 125.12 612.23L125.12 612.23L149.43 452.68L109.45 452.68L82.45 625.93C82.068 628.486 81.8741 631.066 81.87 633.65C81.87 642.143 83.5367 649.023 86.87 654.29C94.97 667.023 105.84 673.39 119.48 673.39Z"   fill="url(#linear_fill_3CsNRe4E--c5Zoz1yVCsf)" >
</path>
<path d="M442.331 465.312C508.481 483.037 552.835 532.003 541.4 574.68C529.965 617.357 467.07 637.585 400.92 619.86C334.77 602.136 290.415 553.17 301.85 510.493C313.286 467.815 376.181 447.587 442.331 465.312Z"   fill="url(#linear_fill_pfexT1lBD2ClOeSmNcheI)" >
</path>
<path d="M454.496 419.909C550.52 445.639 617.934 505.418 605.069 553.43C592.204 601.442 503.933 619.505 407.909 593.776C311.885 568.046 244.471 508.267 257.336 460.255C270.201 412.243 358.472 394.18 454.496 419.909Z"   fill="url(#linear_fill_O62QgWBoVvRCA6Sptj8tr)" >
</path>
<path d="M456.826 411.22C552.849 436.949 620.263 496.728 607.398 544.74C594.534 592.752 506.262 610.816 410.238 585.086C314.214 559.357 246.8 499.577 259.665 451.565C272.53 403.554 360.802 385.49 456.826 411.22Z"   fill="url(#linear_fill_b3rl7gwG_PNOarhR8R8UP)" >
</path>
<path d="M422.92 537.75C489.07 555.48 546 557.61 559.54 507C573.08 456.39 530.48 401 464.33 383.23C398.18 365.46 333.56 392.23 319.99 442.82C306.42 493.41 356.77 520 422.92 537.75Z"   fill="url(#linear_fill_mJuZfUs05B3pJ5DvpAmw3)" >
</path>
<path d="M477.18 354.55L462.69 408.65C462.346 409.931 461.506 411.023 460.356 411.685C459.207 412.347 457.841 412.525 456.56 412.18L456.56 412.18C453.897 411.463 452.317 408.724 453.03 406.06L467.52 352C467.856 350.711 468.692 349.61 469.842 348.94C470.993 348.269 472.364 348.086 473.65 348.43L473.65 348.43C476.313 349.147 477.893 351.885 477.18 354.55Z"   fill="url(#linear_fill_sw0yOCvh8szEbL2ARN1eZ)" >
</path>
<path d="M484.23 348.77C484.23 354.845 479.305 359.77 473.23 359.77C467.155 359.77 462.23 354.845 462.23 348.77C462.23 342.695 467.155 337.77 473.23 337.77C479.305 337.77 484.23 342.695 484.23 348.77Z"   fill="url(#linear_fill_CjCp4V8-AEcwCvNzXeqk3)" >
</path>
<path d="M736.91 548.55L736.91 496.48C736.91 483.74 730.54 477.37 717.8 477.37L655.39 477.37C646.157 477.37 640.307 482.703 637.84 493.37L598.84 493.37C598.58 490.377 598.45 487.777 598.45 485.57C598.45 472.957 603.847 461.643 614.64 451.63C623.74 443.183 635.7 438.96 650.52 438.96L723.65 438.96C741.07 438.96 754.527 443.51 764.02 452.61C773.12 461.45 777.67 473.02 777.67 487.32L777.67 554C777.67 562.973 774.81 572.267 769.09 581.88C774.937 591.88 777.86 600.593 777.86 608.02L777.86 688.17C777.86 701.823 773.44 712.94 764.6 721.52C754.333 731.4 743.283 736.34 731.45 736.34L653.25 736.34C630.757 736.34 614.7 728.15 605.08 711.77C600.92 704.877 598.513 695.713 597.86 684.28L636.48 684.28C639.34 693.38 645.253 697.93 654.22 697.93L717.8 697.93C730.673 697.93 737.11 693.12 737.11 683.5L737.11 618.75C737.11 607.31 730.933 601.59 718.58 601.59L636.28 601.59L636.28 563.17L716.43 563.17C730.09 563.17 736.917 558.297 736.91 548.55Z"   fill="url(#linear_fill_fe7_Zrd13adrLMAG7qlx6)" >
</path>
<path d="M77.4 807.52C80.3 785.307 72.8333 773.343 55 771.63C79.14 769.33 95.12 784.02 95.38 807.52C90.38 807.693 84.3867 807.693 77.4 807.52Z"   fill="url(#linear_fill_BZqqj34uF0Xs8eKnVwoWg)" >
</path>
<path d="M89.12 807.65C93.8333 785.217 88.0367 768.667 71.73 758C92.55 764.57 107.51 774.44 112.37 807.65C104.627 808.124 96.8627 808.124 89.12 807.65Z"   fill="url(#linear_fill_oFNU9Y26eTm2ozsTzW8ER)" >
</path>
<path d="M116.07 808C113.983 786.7 121.627 774.497 139 771.39C122.89 770.99 104.91 769.91 92.05 808C102.95 807.647 110.957 807.647 116.07 808Z"   fill="url(#linear_fill__jgNEqtHs-0I9WUASRtMk)" >
</path>
<path d="M66.41 822C83.26 822 96 822.41 96 806.61C96 790.81 82.34 778 65.5 778C48.66 778 35 790.81 35 806.61C35 822.41 49.57 822 66.41 822Z"   fill="url(#linear_fill_K-3KKshDuYrpbCB5kSOaX)" >
</path>
<path d="M99.57 822C110.06 822 118 822.25 118 812.56C118 802.87 109.49 795 99 795C88.51 795 80 802.86 80 812.56C80 822.26 89.07 822 99.57 822Z"   fill="url(#linear_fill_GFw7IIGkY1E5-Z3gF7jby)" >
</path>
<path d="M212.91 777.63C211.23 769.99 206.327 764.657 198.2 761.63C188.92 758.63 183.83 755.1 189.64 752.53C194.54 752.14 205 748.32 212.91 771.14C213.455 773.269 213.455 775.501 212.91 777.63Z"   fill="url(#linear_fill_GY6T3MS6WJp97Ym1OsN0c)" >
</path>
<path d="M213.32 778.84C208.433 760.6 202.88 747.267 196.66 738.84C192.1 733.11 192.42 724.9 196.66 723.04C201 722.6 209 721.85 215 753.29C215.39 755.45 217.51 768.11 215 776.29C214.712 777.291 214.126 778.181 213.32 778.84Z"   fill="url(#linear_fill_lV1aMwWHQzeznLWxAZtP7)" >
</path>
<path d="M214.45 774.72C216.657 766.56 216.373 755.893 213.6 742.72C209.36 729.98 202.13 714.31 215.32 713.95C220.67 714.68 227.13 720.29 224.69 748.24C223.2 759.52 220.61 766.24 217.9 774.67C216.82 775.219 215.546 775.237 214.45 774.72Z"   fill="url(#linear_fill_lTg3av-NQYNw9y7qBpb54)" >
</path>
<path d="M217 777.89C216.107 754.81 220.33 738.243 229.67 728.19C232.19 724.84 241.78 721.69 241.75 732.19C240.75 736.71 238.6 746.38 226.25 761.12C222.18 766.44 219.51 774.21 219.48 776.04C219.49 777.28 218.67 777.89 217 777.89Z"   fill="url(#linear_fill_RkpRS6auyUvZSwG2LBGEV)" >
</path>
<path d="M169 780.94C178.24 779.22 183.337 777.757 184.29 776.55C185.72 774.75 198.29 767.01 206.14 773.55C207.85 771.35 213.32 769.65 216.46 773.55C217.89 767.39 226.83 763.44 230.72 764.08C235.1 763.74 248.03 763.88 249 780.96C245.473 781.027 218.807 781.02 169 780.94Z"   fill="url(#linear_fill_0U0urB2WblWFmYMl0JrLI)" >
</path>
<path d="M927.33 665.16C927.33 665.16 927.33 665.16 963.2 668.24C995.867 653.573 1010.53 660.787 1007.2 689.88C1005.31 698.907 1001.89 704.547 996.96 706.8C984.12 722.44 977.33 734.977 976.59 744.41C975.48 758.55 964.48 774.58 936.93 765.41C918.557 759.297 905.943 769.523 899.09 796.09C878.41 823.537 842.047 834.507 790 829C790 829 790 829 799.94 757C815.887 750.713 828.063 746.823 836.47 745.33C836.47 745.33 836.47 745.33 848.83 717.82C848.83 707.273 856.47 699.57 871.75 694.71C871.75 694.71 871.75 694.71 891 671.56C901.147 656.613 913.257 654.48 927.33 665.16Z"   fill="url(#linear_fill_bSzt8tBvxbNEXbdMUpyus)" >
</path>
<path d="M874.24 743.746L914.48 716.886C914.69 703.956 930.35 672.296 925.28 684.166Q920.15 696.196 916.46 715.566L964.74 683.346L928.46 709.066C940.87 712.031 951.245 710.022 956.93 708.922C959.659 708.393 961.307 708.074 961.58 708.616C951.113 712.062 939.3 712.856 926.14 710.996C926.315 710.76 926.502 710.533 926.7 710.316L837.88 773.206C838.771 772.768 839.609 772.231 840.38 771.606Q847.61 777.366 863.27 778.806C857.62 779.326 845.93 778.536 837.41 773.536L805.87 795.866L802 791.996L832.51 771.546C832.03 765.206 833.14 750.206 834.81 748.206C833.13 755.406 835.03 769.676 835.03 769.676L834.69 770.096L871.69 745.386C870.14 736.766 873 710.986 875.69 707.386C873.683 714.232 873.237 726.302 874.35 743.596L874.24 743.746ZM880.01 744.15C880.799 743.464 881.541 742.726 882.23 741.94Q907.59 760.66 923.4 760.21C913.13 761.74 896 756.77 880.01 744.15Z" fill-rule="evenodd"  fill="url(#linear_fill_exnOl1ZNpbEObGqibSTIu)" >
</path>
<path d="M893.21 615.65C904.623 617.837 916.153 612.327 927.8 599.12C959.973 577.233 974.903 582.737 972.59 615.63C966.4 639.2 962.34 654.96 964.37 669.4C966.4 683.84 960.05 711.15 927.8 722.4C906.3 729.873 900.263 740.47 909.69 754.19C914.417 775.27 888.34 790.397 831.46 799.57C746.14 813.34 766.46 781.7 788.4 747.41C804.27 731.53 806.4 721.83 806.4 709.69C806.4 697.55 794.78 677.69 828.16 669.45C842.827 666.117 850.51 651.45 851.21 625.45C853.517 612.39 867.517 609.123 893.21 615.65Z"   fill="url(#linear_fill_IPxhUmGuPGunLwvnAc1s9)" >
</path>
<path d="M875.27 701.94L875.07 701.67C869.07 693.19 866.07 682.04 866.07 668.22C864.69 672.51 864.66 692.22 873.23 704.48L846.62 738.4C844.94 735.79 840.74 728.4 840.74 720.24C839.85 725.89 839.74 733.46 844.64 740.92L805.37 790.84L811.6 790.84L849.6 740.29C867.98 748.14 878.29 744.85 883.4 742.55C873.44 744.99 862.87 743.323 851.69 737.55L880.55 699.11C880.4 699.41 880.23 699.71 880.05 700.03C899.26 706.76 919.21 707.55 928.42 702.76C918.553 706.48 902.887 704.63 881.42 697.21L881.86 697.36L914 654.47L913.82 654.98C927.953 655.853 939.233 651.36 947.66 641.5C946.33 640.2 937.31 653.3 915.52 652.5L942.44 616.59L907 661.59L906.93 661.42C903.091 652.5 902.266 642.571 904.58 633.14L904.66 632.83C902.33 640.1 897.85 648.77 905.27 663.76L875.27 701.94Z"   fill="url(#linear_fill_XWWBtjJ-6ZAjY_-OmQ3h4)" >
</path>
<path d="M837.16 670.14C848.69 647.28 851.62 656.47 837.16 633.95C830.853 627.49 824.523 616.37 818.17 600.59C805.75 583.33 794.633 585.083 784.82 605.85C780.06 623.79 787.58 635.2 763 643.35C746.62 648.79 744.14 660.173 755.56 677.5C760.34 688.4 756.817 695.37 744.99 698.41C744.99 698.41 744.99 698.41 749.25 734.63C754.337 746.203 754.337 753.937 749.25 757.83C741.63 763.67 726.97 781.18 744.99 815.22C763.01 849.26 805.45 822.82 811.81 806.82C818.17 790.82 805.45 768.77 811.81 757.82C818.17 746.87 855.27 743.11 845.36 710.3C837.11 696.88 825.63 693 837.16 670.14Z"   fill="url(#linear_fill_zPykOaLW1SjCJOoA3Fjdn)" >
</path>
<path d="M770.74 783.66L779.44 740.01C772.19 735.01 755.99 714.76 755.35 710.31Q760.49 719.7 780 736.86L780 737.05L789.42 689.6C780.43 680.31 769.11 646.83 773.92 658.83Q778.82 670.97 789.92 687.26L801.27 630.35L793.79 674.18C804.669 667.5 810.583 658.74 813.82 653.946C815.37 651.649 816.307 650.262 816.88 650.45Q809.44 665.2 793.51 677.2C793.47 676.91 793.42 676.61 793.42 676.32L775.09 783.59C775.413 782.654 775.627 781.685 775.73 780.7C781.85 780 788.94 776.297 797 769.59C793.39 773.96 784.59 781.69 775 784.16L768.51 822.25L763.04 822.25L770.22 786.25C765.35 782.07 755.6 770.73 755.35 768.12C759.24 774.38 770.69 783.12 770.69 783.12L770.74 783.66ZM784.39 733.25C784.46 732.205 784.46 731.156 784.39 730.11Q815.53 725.43 826.39 713.92C820.21 722.27 804.57 730.88 784.39 733.25Z" fill-rule="evenodd"  fill="url(#linear_fill_13rYTj33LVFcJzNqpfik5)" >
</path>
<g opacity="0.4">
<path d="M419.38 841.5C441.72 848.5 432.82 852.68 425.38 856.79C411.74 864.33 417.87 870.93 424.81 877C435.08 886 511.74 907.63 594.81 889.22C672.32 872.06 660.64 841.22 640.72 827.22C624.72 815.98 554.72 790.48 474.78 795.99C426.66 799.29 406 807.55 401.99 813.92C395.42 824.47 394.51 833.71 419.38 841.5Z"   fill="url(#linear_fill_Skro7OG1BkkD5NjfbG_Tf)" >
</path>
</g>
<path d="M523 685.94C516.55 682.94 510.31 676.13 509.35 671.15C508.39 666.17 499.84 642.41 480.02 646.92C460.2 651.43 456.53 673.18 469.51 687.21C482.49 701.24 489.78 708.95 494.34 706.78C498.9 704.61 504.12 709 507.2 711.78C510.28 714.56 521.76 693.26 521.76 693.26L525.07 689.16L523 685.94Z"   fill="#EBB0B0" >
</path>
<path d="M491.76 688.46C491.76 688.46 498.68 690.39 500.49 688.09C502.3 685.79 514.68 676.39 512.64 671.99C510.6 667.59 511.72 660.18 503.88 649.92C496.04 639.66 477.1 637.23 468.64 639.77C460.18 642.31 454.59 645.18 451 648.24C436.64 660.52 448 672.4 456.9 676.84C465.8 681.28 464.43 678.74 472.58 678.59C472.58 678.59 472.58 676.53 480.68 685.59L484.06 684.64C485.28 684.24 482.25 682.8 482.91 680.55C483.57 678.3 490.63 678.28 491.6 684.01C492.57 689.74 491.76 688.46 491.76 688.46Z" fill-rule="evenodd"  fill="#131322" >
</path>
<path d="M415.89 827.05C418.82 832.05 421.45 833.78 421.33 837.16C421.21 840.54 415.96 846.86 411.72 847.27C406.36 847.79 397.04 848.1 394.42 848.27C391.8 848.44 373.76 848.93 370.42 844.27C367.08 839.61 373.79 833.37 384.93 831.12C396.07 828.87 412.33 826.96 412.33 826.96L415.89 827.05Z"   fill="#333333" >
</path>
<path d="M513.46 789.89C501.33 772.03 471.29 730.65 436.89 734.13C405.42 737.3 397 832.72 397 832.72L415 835.65L445.85 776.31L500 844.48L539.43 829.32L513.46 789.89Z"   fill="url(#linear_fill_2tSwAA0r08Z_DAvWeaXFW)" >
</path>
<path d="M605.58 788.8C613.29 815.8 615.02 857.89 588.09 863.8C573.26 867.06 553.99 864.98 504.18 865.28C455 865.59 423 868 423.24 841C423.48 814 483.13 820.84 495.88 819.65C508.63 818.46 567.63 817.87 567.63 817.87L605.58 788.8Z"   fill="url(#linear_fill_iY-8rMpAZKCH4eOVgkf4c)" >
</path>
<path d="M498.84 710.08C498.84 710.08 502.11 706.89 509.28 700.44C522.91 690.44 517.66 682.26 517.66 682.26C517.66 682.26 565.05 679.43 592.35 727.41C608.79 756.31 610.53 805.81 610.53 805.81C610.53 805.81 594.53 824.58 525.73 818.35C525.73 818.35 505.07 779.02 494.4 760.05C487.28 747.403 488.76 730.747 498.84 710.08Z"   fill="url(#linear_fill_qgZEU7e-azoZNhiOZGh84)" >
</path>
<path d="M375.82 756.52L408.59 768.45L407.4 771.73L374.63 759.8L375.82 756.52L375.82 756.52Z"   fill="#000000" >
</path>
<path d="M414.29 771.71C411.99 770.517 409.563 769.307 407.01 768.08C406.122 767.163 405.088 766.399 403.95 765.82C401.283 765.007 399.993 765.14 400.08 766.22C400.179 767.313 400.817 768.284 401.78 768.81L397.31 767.86L393.07 765.75C388.57 763.643 386.357 764.44 386.43 768.14C387.34 772.29 391.77 776.88 400.55 776.57C402.63 775.903 405.467 776.063 409.06 777.05L414.29 771.71Z"   fill="#EFBA9E" >
</path>
<path d="M410.27 768.73L484 796.59L503.54 719.31C509.393 705.823 519.66 700.157 534.34 702.31C544.77 707.09 549.56 717.04 548.76 727.83C547.96 738.62 532.53 783.89 516.85 804.03C504.98 817.69 497.85 827.15 480.73 822.78C471.91 819.76 446.373 807.03 404.12 784.59L410.27 768.73Z"   fill="url(#linear_fill_uUuaCgXX_PwFRkf2awE9x)" >
</path>
<defs>
<linearGradient id="linear_fill_I4BQML4dtuT5zqH6Royop" x1="-26039.859375" y1="44189.25" x2="-25960.5" y2="44192.96875" gradientUnits="userSpaceOnUse">
<stop offset="0" stop-color="#98D6FA"  />
<stop offset="1" stop-color="#47B0F1"  />
</linearGradient>
<linearGradient id="linear_fill_4mCx8fi-2Eh8EKnmWpSW0" x1="-25339.859375" y1="44019.25" x2="-25260.5" y2="44022.96875" gradientUnits="userSpaceOnUse">
<stop offset="0" stop-color="#98D6FA"  />
<stop offset="1" stop-color="#47B0F1"  />
</linearGradient>
<linearGradient id="linear_fill_1ne9d6bTTak2aoJqKW4vy" x1="-198530.234375" y1="230978.65625" x2="-197600.234375" y2="230978.65625" gradientUnits="userSpaceOnUse">
<stop offset="0" stop-color="#FFF5DE"  />
<stop offset="1" stop-color="#FBD2AC"  />
</linearGradient>
<linearGradient id="linear_fill_hC1th1TZz4iPNlNzFO_bD" x1="-14947.7099609375" y1="25059.400390625" x2="-14900.5419921875" y2="25060.896484375" gradientUnits="userSpaceOnUse">
<stop offset="0" stop-color="#98D6FA"  />
<stop offset="1" stop-color="#47B0F1"  />
</linearGradient>
<linearGradient id="linear_fill_o_MYiBmOIcUj-onaWljzf" x1="-9937.560546875" y1="17739.1494140625" x2="-9904.3505859375" y2="17740.1884765625" gradientUnits="userSpaceOnUse">
<stop offset="0" stop-color="#98D6FA"  />
<stop offset="1" stop-color="#47B0F1"  />
</linearGradient>
<linearGradient id="linear_fill_9Ltw7wgDv4wiZs1wX_q5F" x1="-9972.349609375" y1="17704.6708984375" x2="-9939.140625" y2="17705.7080078125" gradientUnits="userSpaceOnUse">
<stop offset="0" stop-color="#98D6FA"  />
<stop offset="1" stop-color="#47B0F1"  />
</linearGradient>
<linearGradient id="linear_fill_LF34OFj_Porgk2wZAG4lO" x1="-6453.89990234375" y1="12685.0302734375" x2="-6431.23876953125" y2="12685.75" gradientUnits="userSpaceOnUse">
<stop offset="0" stop-color="#98D6FA"  />
<stop offset="1" stop-color="#47B0F1"  />
</linearGradient>
<linearGradient id="linear_fill_3CsNRe4E--c5Zoz1yVCsf" x1="-38011.1171875" y1="275827.125" x2="-37940.91796875" y2="275927.90625" gradientUnits="userSpaceOnUse">
<stop offset="0" stop-color="#98D6FA"  />
<stop offset="1" stop-color="#47B0F1"  />
</linearGradient>
<linearGradient id="linear_fill_pfexT1lBD2ClOeSmNcheI" x1="-88059.2578125" y1="130262.859375" x2="-88067.1953125" y2="130091.2890625" gradientUnits="userSpaceOnUse">
<stop offset="0" stop-color="#98D6FA"  />
<stop offset="1" stop-color="#47B0F1"  />
</linearGradient>
<linearGradient id="linear_fill_O62QgWBoVvRCA6Sptj8tr" x1="-116224.671875" y1="141959.609375" x2="-116075.609375" y2="141611.9375" gradientUnits="userSpaceOnUse">
<stop offset="0" stop-color="#98D6FA"  />
<stop offset="1" stop-color="#47B0F1"  />
</linearGradient>
<linearGradient id="linear_fill_b3rl7gwG_PNOarhR8R8UP" x1="-116232.84375" y1="141949.046875" x2="-116199.8984375" y2="141547.890625" gradientUnits="userSpaceOnUse">
<stop offset="0" stop-color="#98D6FA"  />
<stop offset="1" stop-color="#47B0F1"  />
</linearGradient>
<linearGradient id="linear_fill_mJuZfUs05B3pJ5DvpAmw3" x1="-89082.2890625" y1="131658.734375" x2="-89005.4140625" y2="131571.9375" gradientUnits="userSpaceOnUse">
<stop offset="0" stop-color="#98D6FA"  />
<stop offset="1" stop-color="#47B0F1"  />
</linearGradient>
<linearGradient id="linear_fill_sw0yOCvh8szEbL2ARN1eZ" x1="-17111.400390625" y1="60224.76171875" x2="-17110.798828125" y2="60215.26171875" gradientUnits="userSpaceOnUse">
<stop offset="0" stop-color="#98D6FA"  />
<stop offset="1" stop-color="#47B0F1"  />
</linearGradient>
<linearGradient id="linear_fill_CjCp4V8-AEcwCvNzXeqk3" x1="-8971.75" y1="19943.119140625" x2="-8911.9140625" y2="19922.220703125" gradientUnits="userSpaceOnUse">
<stop offset="0" stop-color="#98D6FA"  />
<stop offset="1" stop-color="#47B0F1"  />
</linearGradient>
<linearGradient id="linear_fill_fe7_Zrd13adrLMAG7qlx6" x1="-37495.12109375" y1="278604.0625" x2="-37426.71875" y2="278706.65625" gradientUnits="userSpaceOnUse">
<stop offset="0" stop-color="#98D6FA"  />
<stop offset="1" stop-color="#47B0F1"  />
</linearGradient>
<linearGradient id="linear_fill_BZqqj34uF0Xs8eKnVwoWg" x1="-8163.3701171875" y1="35578.2890625" x2="-8179.5224609375" y2="35609.3828125" gradientUnits="userSpaceOnUse">
<stop offset="0" stop-color="#98D6FA"  />
<stop offset="1" stop-color="#47B0F1"  />
</linearGradient>
<linearGradient id="linear_fill_oFNU9Y26eTm2ozsTzW8ER" x1="-8202.859375" y1="48375.390625" x2="-8180.1015625" y2="48396.1171875" gradientUnits="userSpaceOnUse">
<stop offset="0" stop-color="#98D6FA"  />
<stop offset="1" stop-color="#47B0F1"  />
</linearGradient>
<linearGradient id="linear_fill__jgNEqtHs-0I9WUASRtMk" x1="-9531.3798828125" y1="36006.78125" x2="-9491.47265625" y2="36020.86328125" gradientUnits="userSpaceOnUse">
<stop offset="0" stop-color="#98D6FA"  />
<stop offset="1" stop-color="#47B0F1"  />
</linearGradient>
<linearGradient id="linear_fill_K-3KKshDuYrpbCB5kSOaX" x1="-12594.5" y1="42804.41015625" x2="-12542.650390625" y2="42820.26953125" gradientUnits="userSpaceOnUse">
<stop offset="0" stop-color="#98D6FA"  />
<stop offset="1" stop-color="#47B0F1"  />
</linearGradient>
<linearGradient id="linear_fill_GFw7IIGkY1E5-Z3gF7jby" x1="-7629.6201171875" y1="26980.580078125" x2="-7597.3203125" y2="26990.080078125" gradientUnits="userSpaceOnUse">
<stop offset="0" stop-color="#98D6FA"  />
<stop offset="1" stop-color="#47B0F1"  />
</linearGradient>
<linearGradient id="linear_fill_GY6T3MS6WJp97Ym1OsN0c" x1="-4987.8203125" y1="25633.708984375" x2="-4980.498046875" y2="25611.220703125" gradientUnits="userSpaceOnUse">
<stop offset="0" stop-color="#98D6FA"  />
<stop offset="1" stop-color="#47B0F1"  />
</linearGradient>
<linearGradient id="linear_fill_lV1aMwWHQzeznLWxAZtP7" x1="-4286.16015625" y1="53829.921875" x2="-4285.015625" y2="53809.3203125" gradientUnits="userSpaceOnUse">
<stop offset="0" stop-color="#98D6FA"  />
<stop offset="1" stop-color="#47B0F1"  />
</linearGradient>
<linearGradient id="linear_fill_lTg3av-NQYNw9y7qBpb54" x1="-3110.330078125" y1="58691.75" x2="-3109.98095703125" y2="58676.04296875" gradientUnits="userSpaceOnUse">
<stop offset="0" stop-color="#98D6FA"  />
<stop offset="1" stop-color="#47B0F1"  />
</linearGradient>
<linearGradient id="linear_fill_RkpRS6auyUvZSwG2LBGEV" x1="-4683.7001953125" y1="51042.08203125" x2="-4682.20849609375" y2="51019.70703125" gradientUnits="userSpaceOnUse">
<stop offset="0" stop-color="#98D6FA"  />
<stop offset="1" stop-color="#47B0F1"  />
</linearGradient>
<linearGradient id="linear_fill_0U0urB2WblWFmYMl0JrLI" x1="-16525.669921875" y1="17643.1591796875" x2="-16435.26953125" y2="17643.1591796875" gradientUnits="userSpaceOnUse">
<stop offset="0" stop-color="#98D6FA"  />
<stop offset="1" stop-color="#47B0F1"  />
</linearGradient>
<linearGradient id="linear_fill_bSzt8tBvxbNEXbdMUpyus" x1="84208.640625" y1="134227.40625" x2="84383.6015625" y2="134246.53125" gradientUnits="userSpaceOnUse">
<stop offset="0" stop-color="#98D6FA"  />
<stop offset="1" stop-color="#47B0F1"  />
</linearGradient>
<linearGradient id="linear_fill_exnOl1ZNpbEObGqibSTIu" x1="489.6483154296875" y1="-804.8125" x2="471.60540771484375" y2="-803.8583984375" gradientUnits="userSpaceOnUse">
<stop offset="0.03" stop-color="#AFDEF9"  />
<stop offset="1" stop-color="#7CC9F9"  />
</linearGradient>
<linearGradient id="linear_fill_IPxhUmGuPGunLwvnAc1s9" x1="-215.1400146484375" y1="-931.6298828125" x2="-105.206787109375" y2="-879.59326171875" gradientUnits="userSpaceOnUse">
<stop offset="0" stop-color="#98D6FA"  />
<stop offset="1" stop-color="#47B0F1"  />
</linearGradient>
<linearGradient id="linear_fill_XWWBtjJ-6ZAjY_-OmQ3h4" x1="-73297.28125" y1="189903.9375" x2="-73287.2109375" y2="189899.625" gradientUnits="userSpaceOnUse">
<stop offset="0.03" stop-color="#AFDEF9"  />
<stop offset="1" stop-color="#7CC9F9"  />
</linearGradient>
<linearGradient id="linear_fill_zPykOaLW1SjCJOoA3Fjdn" x1="-216.300048828125" y1="-931.360107421875" x2="-193.0614013671875" y2="-792.88427734375" gradientUnits="userSpaceOnUse">
<stop offset="0" stop-color="#98D6FA"  />
<stop offset="1" stop-color="#47B0F1"  />
</linearGradient>
<linearGradient id="linear_fill_13rYTj33LVFcJzNqpfik5" x1="-217.280029296875" y1="-931.98974609375" x2="-205.1964111328125" y2="-945.4228515625" gradientUnits="userSpaceOnUse">
<stop offset="0.03" stop-color="#AFDEF9"  />
<stop offset="1" stop-color="#7CC9F9"  />
</linearGradient>
<linearGradient id="linear_fill_Skro7OG1BkkD5NjfbG_Tf" x1="68808.3671875" y1="96730.3046875" x2="69060.0703125" y2="96730.3046875" gradientUnits="userSpaceOnUse">
<stop offset="0" stop-color="#F5DDA7"  />
<stop offset="1" stop-color="#FA9A41"  />
</linearGradient>
<linearGradient id="linear_fill_2tSwAA0r08Z_DAvWeaXFW" x1="-216.3699951171875" y1="-932.199951171875" x2="-340.2406005859375" y2="-932.199951171875" gradientUnits="userSpaceOnUse">
<stop offset="0" stop-color="#1D181C"  />
<stop offset="0.3" stop-color="#2C2422"  />
<stop offset="0.5" stop-color="#42352C"  />
<stop offset="0.7" stop-color="#57352C"  />
<stop offset="1" stop-color="#923629"  />
</linearGradient>
<linearGradient id="linear_fill_iY-8rMpAZKCH4eOVgkf4c" x1="-216.010009765625" y1="-932.56005859375" x2="-378.952392578125" y2="-932.56005859375" gradientUnits="userSpaceOnUse">
<stop offset="0" stop-color="#1D181C"  />
<stop offset="0.3" stop-color="#2C2422"  />
<stop offset="0.5" stop-color="#42352C"  />
<stop offset="0.7" stop-color="#57352C"  />
<stop offset="1" stop-color="#923629"  />
</linearGradient>
<linearGradient id="linear_fill_qgZEU7e-azoZNhiOZGh84" x1="-216.780029296875" y1="-932.0400390625" x2="-337.330078125" y2="-932.0400390625" gradientUnits="userSpaceOnUse">
<stop offset="0" stop-color="#FFB859"  />
<stop offset="1" stop-color="#F97B61"  />
</linearGradient>
<linearGradient id="linear_fill_uUuaCgXX_PwFRkf2awE9x" x1="-216.47998046875" y1="-932.1298828125" x2="-361.2099609375" y2="-932.1298828125" gradientUnits="userSpaceOnUse">
<stop offset="0" stop-color="#FFB859"  />
<stop offset="1" stop-color="#F97B61"  />
</linearGradient>
</defs>
</svg>
