<svg xmlns="http://www.w3.org/2000/svg" xmlns:xlink="http://www.w3.org/1999/xlink" width="1024" height="1024" viewBox="0 0 1024 1024" fill="none">
<g  clip-path="url(#clip-path-SYFZnPLVEOsuDodBQfLsO)">
<g opacity="0">
<path d="M0 0L0 1024L1024 1024L1024 0L0 0Z"   fill="#FFFFFF" >
</path>
</g>
<g opacity="0.05">
<path d="M950.351 303.513C957.592 412.384 963.61 530.497 912.913 575.237C862.216 619.978 913.839 660.151 950.351 664.615C986.863 669.08 933.282 745.526 848.951 778.902C792.88 804.056 430.191 876.18 212.995 802.041C108.115 757.125 84.4698 614.862 76.7968 581.767C69.1238 548.672 19.1769 333.146 160.398 303.513C301.619 273.879 385.048 308.393 447.098 248.052C509.149 187.71 524.624 197.614 575.59 201.605C626.557 205.596 685.626 162.039 705.475 148.955C725.324 135.872 904.534 51.6934 950.351 303.513Z"   fill="#47B0F1" >
</path>
</g>
<g opacity="0.100000001">
<path d="M148.004 321.759L148 322C148 325.785 151.005 328.869 154.759 328.996L155 329L158 329L158.001 329.15C161.424 329.845 164 332.872 164 336.5L164 337.5C164 341.642 160.642 345 156.5 345L77.5 345C73.3579 345 70 341.642 70 337.5L70 336.5C70 332.358 73.3579 329 77.5 329L109 329C112.785 329 115.869 325.995 115.996 322.241L116 322C116 318.215 112.995 315.131 109.241 315.004L109 315L106 315L106 314.85C102.577 314.155 100 311.129 100 307.5L100 306.5C100 302.358 103.358 299 107.5 299L186.5 299C190.642 299 194 302.358 194 306.5L194 307.5C194 311.642 190.642 315 186.5 315L155 315C151.215 315 148.131 318.005 148.004 321.759Z"   fill="url(#linear_fill_54k9iHZ2DZABg68oUD1BG)" >
</path>
</g>
<g opacity="0.100000001">
<path d="M894 136.5L894 137.5C894 141.642 890.642 145 886.5 145L855 145C851.215 145 848.131 148.005 848.004 151.759L848 152C848 155.785 851.005 158.869 854.759 158.996L855 159L858 159L858.001 159.15C861.424 159.845 864 162.872 864 166.5L864 167.5C864 171.642 860.642 175 856.5 175L777.5 175C773.358 175 770 171.642 770 167.5L770 166.5C770 162.358 773.358 159 777.5 159L809 159C812.785 159 815.869 155.995 815.996 152.241L816 152C816 148.215 812.995 145.131 809.241 145.004L809 145L806 145L806 144.85C802.577 144.155 800 141.129 800 137.5L800 136.5C800 132.358 803.358 129 807.5 129L886.5 129C890.642 129 894 132.358 894 136.5Z"   fill="url(#linear_fill_PzX3BvByTAVVxC1V9Uii_)" >
</path>
</g>
<path d="M846.303 740.013C927.064 740.66 992 765.031 992 795C992 819.23 949.553 839.8 890.611 847.132C877.644 850.885 863.205 854.433 847.453 857.746C847.815 859.812 848 861.898 848 864C848 915.915 735.176 958 596 958C471.347 958 367.833 924.24 347.587 879.894C180.198 867.129 62 835.721 62 799C62 750.951 264.367 712 514.517 712C645.621 712 763.778 722.788 846.303 740.013Z"   fill="url(#linear_fill_YpxLZMxNbEjjsAUKtQW9I)" >
</path>
<path d="M686.605 226.65L686.605 226.552C681.28 211.515 663.91 204.438 649.174 206.623C660.101 199.827 678.138 198.018 686.608 208.435L686.608 208.526C695.066 198.199 713.201 199.921 724.043 206.713C709.32 204.629 691.946 211.695 686.608 226.643L686.605 226.65Z"   fill="url(#linear_fill_nF-045BkBn4VcpFfUW66C)" >
</path>
<path d="M770.034 214.109L770.034 214.045C766.335 203.621 754.303 198.726 744.087 200.23C751.659 195.522 764.164 194.266 770.034 201.487L770.034 201.55C775.905 194.393 788.467 195.586 795.982 200.294C785.766 198.85 773.74 203.748 770.034 214.109Z"   fill="url(#linear_fill_Ridy3YkEUa6SnT7rf0X7C)" >
</path>
<path d="M735.242 179.631L735.242 179.567C731.542 169.143 719.51 164.248 709.295 165.752C716.866 161.044 729.372 159.788 735.242 167.009L735.242 167.072C741.113 159.915 753.674 161.108 761.189 165.816C750.974 164.372 738.948 169.27 735.242 179.631Z"   fill="url(#linear_fill_qD95fvtZzeoD4-ZQirysw)" >
</path>
<path d="M840.723 220.069L840.723 220.025C838.161 212.801 829.815 209.404 822.736 210.449C827.986 207.185 836.654 206.314 840.723 211.32L840.723 211.364C844.795 206.401 853.501 207.229 858.71 210.492C851.631 209.487 843.286 212.888 840.723 220.069Z"   fill="url(#linear_fill_v66qFTXgKcWElU4fKXF3M)" >
</path>
<path d="M10.1296 698.037C12.0271 707.068 15.4408 712.707 20.3707 714.955C33.2125 730.601 40.0034 743.138 40.7435 752.567C41.8538 766.711 52.8511 782.733 80.4049 773.576C98.7742 767.471 111.386 777.699 118.24 804.258C138.955 831.701 175.332 842.664 227.37 837.146C279.408 831.629 276.097 807.63 217.437 765.152C201.486 758.853 189.309 754.963 180.905 753.481C172.501 751.999 168.379 742.829 168.54 725.969C168.572 715.42 160.933 707.715 145.624 702.856C130.315 697.997 123.912 690.285 126.417 679.72C116.268 664.765 104.157 662.63 90.0837 673.314C76.0106 683.998 64.0407 685.026 54.1742 676.398C21.492 661.707 6.81044 668.92 10.1296 698.037Z"   fill="url(#linear_fill_WAiNzu0dSra13jU_en6NJ)" >
</path>
<path d="M211.52 804.01L179.982 781.678C171.46 786.712 159.772 787.472 154.122 786.945C164.568 785.988 172.2 783.591 177.019 779.752C177.869 780.43 178.701 780.962 179.516 781.349L90.6984 718.455C90.8962 718.676 91.0824 718.905 91.2569 719.141C78.0954 720.997 66.2824 720.202 55.8181 716.757C56.6576 715.092 70.569 721.593 88.9319 717.206L52.6386 691.507L100.91 723.726C98.4543 710.814 95.515 700.349 92.0918 692.331C87.0222 680.456 102.684 712.12 102.89 725.048L143.134 751.91C143.095 751.857 143.057 751.805 143.022 751.753C144.132 734.464 143.685 722.396 141.68 715.548C144.37 719.144 147.237 744.925 145.644 753.587L182.66 778.293C182.452 778.046 182.32 777.881 182.32 777.881C182.32 777.881 184.226 763.603 182.54 756.409C184.214 758.436 185.327 773.358 184.843 779.75L215.39 800.14L211.52 804.01Z"   fill="url(#linear_fill_cGv1Cq8_-YV4gkcO8Aq7c)" >
</path>
<path d="M93.9715 768.363C104.511 768.667 118.234 762.576 135.141 750.093C135.729 750.78 136.469 751.52 137.359 752.311C121.389 764.927 104.24 769.895 93.9715 768.363Z"   fill="url(#linear_fill_vjYeATDc4fqVSk9Qqyhma)" >
</path>
<path d="M53.0069 677.562C50.9772 692.008 57.3218 719.307 89.5711 730.51C111.071 737.979 117.109 748.576 107.687 762.301C102.956 783.375 129.032 798.501 185.914 807.677C271.237 821.443 250.908 789.81 228.972 755.522C213.102 739.638 210.978 729.942 210.978 717.802C210.978 705.662 222.594 685.818 189.219 677.562C174.561 674.229 166.876 659.571 166.164 633.588C163.857 620.527 149.866 617.262 124.191 623.792C112.769 625.988 101.229 620.482 89.5711 607.277C57.4032 585.385 42.4757 590.891 44.7887 623.792C50.9772 647.361 55.0366 663.116 53.0069 677.562Z"   fill="url(#linear_fill_Bt4ttSMOzJ10hDihrZ7Ml)" >
</path>
<path d="M142.147 710.19L142.342 709.92C148.315 701.435 151.302 690.283 151.302 676.464C152.68 680.756 152.711 700.47 144.144 712.727L170.75 746.554C172.431 743.944 176.633 736.596 176.633 728.401C177.521 734.045 177.581 741.619 172.736 749.078L212.002 799L205.775 799L167.817 748.447C149.435 756.293 139.12 753.011 134.014 750.703C143.978 753.144 154.55 751.464 165.728 745.662L136.863 707.218C137.017 707.514 137.183 707.82 137.359 708.134C118.152 714.863 98.2084 715.661 88.9978 710.869C98.8645 714.587 114.527 712.736 135.984 705.314L135.547 705.465L103.383 662.624C103.448 662.795 103.508 662.968 103.563 663.142C89.4326 664.012 78.1532 659.516 69.7244 649.653C71.0585 648.354 80.0723 661.46 101.865 660.605L74.9388 624.743L110.377 669.797L110.447 669.63C114.318 660.294 115.101 650.866 112.795 641.345L112.718 641.039L112.732 641.081C115.067 648.349 119.541 657.017 112.12 672.011L142.147 710.19Z"   fill="url(#linear_fill_OH8qfGM_Or1OxqK-Sf-7Y)" >
</path>
<path d="M180.215 642.118C186.528 635.648 192.857 624.526 199.201 608.752C211.62 591.492 222.737 593.244 232.553 614.007C237.311 631.948 229.797 643.354 254.373 651.509C270.757 656.946 273.236 668.329 261.811 685.658C257.039 696.562 260.565 703.531 272.388 706.567C284.212 709.602 282.79 721.675 268.122 742.786C263.037 754.359 263.037 762.092 268.122 765.985C275.748 771.825 290.403 789.337 272.388 823.377C254.373 857.417 211.928 830.98 205.565 814.976C199.201 798.971 211.928 776.925 205.565 765.985C199.201 755.046 162.099 751.279 172.011 718.469C180.261 705.045 191.746 701.165 180.215 678.308C168.685 655.451 165.758 664.634 180.215 642.118Z"   fill="url(#linear_fill_tlmI6m-u-KJ4gBoW36Qvi)" >
</path>
<path d="M262.067 776.254C261.817 778.871 252.053 790.209 247.191 794.387L254.373 830.405L248.9 830.405L242.39 792.312C232.805 789.846 224.003 782.119 220.381 777.752C228.443 784.461 235.535 788.162 241.657 788.856C241.779 789.936 241.991 790.901 242.294 791.75L223.963 684.474C223.947 684.77 223.916 685.064 223.872 685.355C213.254 677.36 205.463 668.445 200.499 658.609C202.27 658.026 207.51 672.46 223.597 682.342L216.106 638.507L227.456 695.422C234.85 684.555 240.172 675.077 243.421 666.987C248.232 655.006 236.917 688.47 227.921 697.757L237.384 745.208C237.394 745.143 237.404 745.079 237.416 745.018C250.426 733.578 258.643 724.728 262.067 718.468C261.427 722.913 245.225 743.17 237.973 748.169L246.678 791.813C246.705 791.492 246.728 791.281 246.728 791.281C246.728 791.281 258.172 782.533 262.067 776.254Z"   fill="url(#linear_fill_pO08Dj3UUuFbVE01pHeM5)" >
</path>
<path d="M190.987 722.079C198.225 729.746 212.235 735.144 233.017 738.271C232.947 739.173 232.947 740.219 233.017 741.409C212.804 739.036 197.165 730.424 190.987 722.079Z"   fill="url(#linear_fill_E6DWSI2Wpgw7pd1hXiEYq)" >
</path>
<path d="M938.396 787.516C941.302 765.313 933.837 753.352 916 751.632C940.142 749.325 956.124 764.017 956.382 787.516C951.377 787.691 945.382 787.691 938.396 787.516Z"   fill="url(#linear_fill_cjKCbZrjEbovY_7xvVa7G)" >
</path>
<path d="M950.121 787.647C954.834 765.241 949.037 748.692 932.731 738C953.552 744.567 968.511 754.435 973.373 787.647C967.019 788.118 959.268 788.118 950.121 787.647Z"   fill="url(#linear_fill_7x9Zv7Ob5-cYID2Lpk1mF)" >
</path>
<path d="M977.068 788C974.983 766.704 982.628 754.503 1000 751.395C983.886 750.987 965.911 749.906 953.052 788C963.95 787.65 971.955 787.65 977.068 788Z"   fill="url(#linear_fill_WMR-gn1bfQcCBlCQrUuTS)" >
</path>
<path d="M927.412 801.999C944.257 801.999 957 802.409 957 786.609C957 770.809 943.345 758 926.5 758C909.655 758 896 770.809 896 786.609C896 802.409 910.568 801.999 927.412 801.999Z"   fill="url(#linear_fill_0o2nXzlVPqrIglxsYhSrf)" >
</path>
<path d="M960.568 801.999C971.062 801.999 979 802.251 979 792.555C979 782.86 970.493 775 960 775C949.507 775 941 782.86 941 792.555C941 802.251 950.075 801.999 960.568 801.999Z"   fill="url(#linear_fill_ealx2N2G9bvZFRDVcXtz-)" >
</path>
<path d="M285.215 63.1812L296.061 59.2336L326.819 126.867L305.127 134.762L285.215 63.1812Z"   fill="url(#linear_fill_bM2XWlGwbrcCxxNVmew5u)" >
</path>
<path     fill="url(#linear_fill_qbQ_98GB98xZ-2en9BffC_0)"  d="M263.088 221.744C278.35 263.675 324.707 285.292 366.638 270.03C408.569 254.769 430.195 208.408 414.933 166.477L411.082 155.896C395.821 113.966 349.454 92.3522 307.523 107.614C265.592 122.875 243.976 169.233 259.237 211.163L263.088 221.744">
</path>
<path d="M512.444 155.52C526.436 193.963 464.94 251.639 375.088 284.342C285.236 317.046 201.054 312.393 187.062 273.95C173.07 235.507 234.566 177.831 324.418 145.128C414.27 112.424 498.452 117.077 512.444 155.52Z"   fill="url(#linear_fill_hcqjXXYNi8MOyyKTMuxgn)" >
</path>
<path d="M512.444 164.41C526.436 202.853 464.94 260.528 375.088 293.232C285.236 325.935 201.054 321.282 187.062 282.839C173.07 244.396 234.566 186.72 324.418 154.017C414.27 121.314 498.452 125.967 512.444 164.41Z"   fill="url(#linear_fill_hiLiqh6gdI2doRLztGbtf)" >
</path>
<path d="M449.479 193.896C456.475 213.118 418.443 244.607 364.532 264.229C310.621 283.851 261.246 284.175 254.25 264.954C247.254 245.732 285.286 214.243 339.197 194.621C393.108 174.999 442.483 174.675 449.479 193.896Z"   fill="url(#linear_fill_lru4_ugAox9ob34amYEai)" >
</path>
<g opacity="0.3">
<path d="M252.138 259.153L447.367 188.096L895 744.6L314.294 913.002L252.138 259.153Z"   fill="url(#linear_fill_BvPn8bf-mlLPPE2zB3b8C)" >
</path>
</g>
<path d="M298.447 58.3647C300.127 62.9781 297.991 67.9907 293.678 69.5605C289.365 71.1304 284.507 68.663 282.828 64.0496C281.149 59.4362 283.284 54.4237 287.598 52.8538C291.911 51.284 296.768 53.7513 298.447 58.3647Z"   fill="url(#linear_fill_GhOUXsg1zdh3LOEvGDyLz)" >
</path>
<path d="M327.123 349.393C329.137 355.791 333.07 359.775 338.923 361.343L372.22 370.265L363.742 401.906L381.053 406.544L389.532 374.904L400.051 377.722L404.423 361.405L393.904 358.587L414.921 280.148L397.61 275.51L376.593 353.948L352.407 347.468C350.474 346.95 349.026 346.059 348.063 344.794C346.817 343.04 346.43 341.279 346.904 339.512C347.066 338.905 347.552 337.644 348.361 335.73L377.151 270.028L360.006 265.434L328.48 336.706C328.018 337.766 327.64 338.849 327.344 339.953C326.367 343.597 326.294 346.744 327.123 349.393Z"   fill="url(#linear_fill_bkk_VJ_SgJN2hrJX0Rutr)" >
</path>
<path d="M446.33 579.162L427.712 509.679L412.378 513.788L430.995 583.271L409.571 589.012C407.859 589.47 406.354 589.428 405.055 588.885C403.322 588.091 402.245 586.911 401.826 585.346C401.682 584.808 401.496 583.626 401.269 581.799L394.255 518.644L379.067 522.714L386.45 591.354C386.565 592.371 386.754 593.369 387.016 594.347C387.881 597.576 389.218 600.022 391.027 601.687C395.406 605.704 400.188 607.018 405.373 605.628L434.868 597.725L442.378 625.753L457.713 621.644L450.203 593.616L459.521 591.119L455.648 576.665L446.33 579.162Z"   fill="url(#linear_fill_BFoozLWJZX-ane6AKITqv)" >
</path>
<path d="M435.098 463.437C432.835 459.64 432.404 455.139 433.797 449.94L450.227 388.623C451.665 383.257 454.397 379.335 458.429 376.866C462.397 374.469 466.519 373.846 470.796 374.992L495.697 381.665C501.567 383.237 505.439 386.091 507.296 390.228C509.203 394.514 509.532 398.96 508.296 403.572L491.797 465.15C490.28 470.81 487.691 474.697 484.023 476.815C482.481 477.705 480.678 478.323 478.609 478.667C476.159 479.089 474.071 479.066 472.352 478.606L446.445 471.664C441.372 470.305 437.587 467.564 435.098 463.437ZM470.497 388.191L491.004 393.686C494.651 394.663 495.932 397.163 494.853 401.188L479.096 459.993C478.445 462.425 477.573 464.008 476.477 464.747C475.231 465.537 473.287 465.58 470.645 464.872L452.032 459.885C447.797 458.75 446.271 455.961 447.462 451.517L463.506 391.639C463.888 390.214 464.739 389.145 466.057 388.42C467.257 387.797 468.736 387.719 470.497 388.191Z" fill-rule="evenodd"  fill="url(#linear_fill_GRwB9UBf5GSS5IFcvfrpV)" >
</path>
<g opacity="0.4">
<path d="M593.079 838.497C615.412 845.487 606.522 849.676 599.095 853.787C585.459 861.334 591.586 867.93 598.525 873.998C608.794 882.978 685.453 904.633 768.569 886.217C846.076 869.057 834.4 838.223 814.478 824.228C798.433 812.987 728.501 787.495 648.539 793.002C600.419 796.301 579.757 804.565 575.746 810.928C569.114 821.467 568.211 830.709 593.079 838.497Z"   fill="url(#linear_fill_Zfag0Nv0K6P12FaxzyVwZ)" >
</path>
</g>
<path d="M678.114 842.943C679.191 848.241 680.979 850.602 679.852 853.555C678.724 856.507 672.133 860.504 668.258 859.577C663.347 858.403 655.002 855.833 652.64 855.159C650.277 854.486 634.15 849.445 632.584 844.281C631.017 839.117 638.888 835.659 649.433 837.058C659.978 838.458 674.968 841.738 674.968 841.738L678.114 842.943Z"   fill="#333333" >
</path>
<path d="M765.846 819.074C767.974 828.427 769.849 830.378 767.694 834.043C765.54 837.708 748.498 833.587 746.624 833.045C744.75 832.503 727.561 826.891 725.67 822.987C723.779 819.084 729.793 815.283 737.072 815.887C743.605 816.432 753.273 815.755 753.273 815.755L765.846 819.074Z"   fill="#333333" >
</path>
<path d="M736.637 580C736.637 580 741.869 589.556 744 619.332C746.13 649.107 733.509 719.517 742.193 737.714C750.877 755.912 766 811.692 766 811.692C766 811.692 770 841.712 745.431 823.796C733.457 794.436 713.929 759.624 708.913 742.202C703.897 724.779 691.383 615.537 691.383 615.537L736.637 580Z"   fill="url(#linear_fill_1lH7pwrF-cUZAFBU95kdM)" >
</path>
<path d="M718.617 607.872C718.617 607.872 716.279 619.669 710.555 648.91C704.83 678.151 670.887 742.394 674.461 762.442C678.036 782.49 677.685 840.247 677.685 840.247C677.685 840.247 674.461 869.532 655.81 845.093C652.021 813.526 641.244 775.567 641.002 757.402C640.76 739.237 661.185 606.432 661.185 606.432L718.617 607.872Z"   fill="url(#linear_fill_Nf1PnM__TV5nQqSLS4gVB)" >
</path>
<path d="M610 425.959C603.973 421.864 606.595 417.931 596.044 411.58C589.697 407.755 587.1 412.834 582.495 411.58C577.89 410.326 571.723 403.826 568.594 406.605C566.923 408.102 569.297 409.944 579.67 418C579.67 418 593.893 427.78 596.044 428.041C598.195 428.303 605.395 436 605.395 436L610 425.959Z"   fill="#EFBA9E" >
</path>
<path d="M719 417.799C715.235 411.744 713.7 402.661 715.61 397.959C717.519 393.257 723.283 368.671 704.207 361.663C685.132 354.655 670.205 370.897 673.444 389.731C676.682 408.565 678.609 419.001 683.615 419.669C688.62 420.337 690.604 426.849 691.702 430.83C692.799 434.81 713.995 423.231 713.995 423.231L719 421.592L719 417.799Z"   fill="#EBB0B0" >
</path>
<path d="M607.594 418.41C668.482 456.758 670.054 466.693 692.632 454.44C715.209 442.186 716.786 435.004 716.786 435.004L735.887 476.525C735.887 476.525 730.626 490.742 696 500.195C661.374 509.649 615.945 454.44 601.322 442.23C589.34 432.226 602.817 415.404 607.594 418.41Z"   fill="url(#linear_fill_6NkLHWaNxqblFMDJbHziD)" >
</path>
<path d="M718.441 416.968C709.133 418 682 416.968 662.061 473.7C652.88 499.825 671.519 562.151 654.79 598.008C648.892 610.646 660 618.283 672 618.283C686.497 618.283 744.603 621.11 752 598.008C755.801 586.121 752.444 508.512 752 501.278C749.444 459.667 732.526 415.406 718.441 416.968Z"   fill="url(#linear_fill_5kheBxHpZMqCaQSEEQmWM)" >
</path>
<path d="M661.842 542C661.842 542 662.474 552.917 663.332 556.199C665.325 559.04 667.688 561.61 670.36 563.842C675.237 568.087 682.473 566.58 681.976 571.28C681.479 575.981 676.15 571.628 665.419 573.287C656.305 575.231 654.435 572.583 654.435 572.583C654.435 572.583 654.146 563.146 654.01 557.938C653.667 545.059 661.842 542 661.842 542Z"   fill="#EFBA9E" >
</path>
<path d="M700.048 478.898C691.239 503.269 646.607 552.756 646.607 552.756C646.607 552.756 660.528 550.598 663.263 560C665.431 567.44 664.349 572.515 653.814 574.308C637.682 577.065 615.945 573.683 615.945 562.524C615.945 524.572 663.317 458.014 671.907 452.025C705.58 428.55 708.343 455.918 700.048 478.898Z"   fill="url(#linear_fill_dtLRM4MLsaOfb3ZmvQJ_F)" >
</path>
<path d="M669.593 381.736C674.609 390.287 674.869 387.434 681.795 391.744C681.795 391.744 682.91 390.016 684.785 401.997L688.135 403.049C689.382 403.378 687.627 400.517 689.404 398.997C691.18 397.477 697.111 401.29 694.805 406.623C692.499 411.956 692.517 410.445 692.517 410.445C692.517 410.445 697.272 415.831 700.044 414.889C702.817 413.947 718.309 412.803 719 408.003C719.691 403.203 724.66 397.6 723.673 384.73C722.686 371.859 708.123 359.495 699.65 357.018C691.176 354.541 684.893 353.923 680.219 354.541C661.489 357.018 664.578 373.186 669.593 381.736Z" fill-rule="evenodd"  fill="#131322" >
</path>
</g>
<defs>
<clipPath id="clip-path-SYFZnPLVEOsuDodBQfLsO">
<path d="M0 1024L1024 1024L1024 0L0 0L0 1024Z" fill="white"/>
</clipPath>
<linearGradient id="linear_fill_54k9iHZ2DZABg68oUD1BG" x1="53.15788269042969" y1="322" x2="132" y2="320.71337890625" gradientUnits="userSpaceOnUse">
<stop offset="0" stop-color="#98D6FA"  />
<stop offset="1" stop-color="#47B0F1"  />
</linearGradient>
<linearGradient id="linear_fill_PzX3BvByTAVVxC1V9Uii_" x1="753.1578979492188" y1="152" x2="832" y2="150.71337890625" gradientUnits="userSpaceOnUse">
<stop offset="0" stop-color="#98D6FA"  />
<stop offset="1" stop-color="#47B0F1"  />
</linearGradient>
<linearGradient id="linear_fill_YpxLZMxNbEjjsAUKtQW9I" x1="62" y1="704.3603515625" x2="992" y2="704.3603515625" gradientUnits="userSpaceOnUse">
<stop offset="0" stop-color="#FFF5DE"  />
<stop offset="1" stop-color="#FBD2AC"  />
</linearGradient>
<linearGradient id="linear_fill_nF-045BkBn4VcpFfUW66C" x1="639.0051879882812" y1="213.86181640625" x2="686.6084594726562" y2="213.25537109375" gradientUnits="userSpaceOnUse">
<stop offset="0" stop-color="#98D6FA"  />
<stop offset="1" stop-color="#47B0F1"  />
</linearGradient>
<linearGradient id="linear_fill_Ridy3YkEUa6SnT7rf0X7C" x1="737.038818359375" y1="205.2470703125" x2="770.034423828125" y2="204.826904296875" gradientUnits="userSpaceOnUse">
<stop offset="0" stop-color="#98D6FA"  />
<stop offset="1" stop-color="#47B0F1"  />
</linearGradient>
<linearGradient id="linear_fill_qD95fvtZzeoD4-ZQirysw" x1="702.2464599609375" y1="170.76904296875" x2="735.2420654296875" y2="170.348876953125" gradientUnits="userSpaceOnUse">
<stop offset="0" stop-color="#98D6FA"  />
<stop offset="1" stop-color="#47B0F1"  />
</linearGradient>
<linearGradient id="linear_fill_v66qFTXgKcWElU4fKXF3M" x1="817.849609375" y1="213.926025390625" x2="840.7230834960938" y2="213.635009765625" gradientUnits="userSpaceOnUse">
<stop offset="0" stop-color="#98D6FA"  />
<stop offset="1" stop-color="#47B0F1"  />
</linearGradient>
<linearGradient id="linear_fill_WAiNzu0dSra13jU_en6NJ" x1="-33.989285469055176" y1="720.51953125" x2="138.96319580078125" y2="740.629638671875" gradientUnits="userSpaceOnUse">
<stop offset="0" stop-color="#98D6FA"  />
<stop offset="1" stop-color="#47B0F1"  />
</linearGradient>
<linearGradient id="linear_fill_cGv1Cq8_-YV4gkcO8Aq7c" x1="51.629844665527344" y1="675.006591796875" x2="67.87078094482422" y2="676.2744140625" gradientUnits="userSpaceOnUse">
<stop offset="0.0315726754" stop-color="#AFDEF9"  />
<stop offset="1" stop-color="#7CC9F9"  />
</linearGradient>
<linearGradient id="linear_fill_vjYeATDc4fqVSk9Qqyhma" x1="105.91084289550781" y1="754.66015625" x2="111.90348815917969" y2="750.43115234375" gradientUnits="userSpaceOnUse">
<stop offset="0.0315726754" stop-color="#AFDEF9"  />
<stop offset="1" stop-color="#7CC9F9"  />
</linearGradient>
<linearGradient id="linear_fill_Bt4ttSMOzJ10hDihrZ7Ml" x1="56.60823059082031" y1="726.106689453125" x2="166.63400268554688" y2="674.497802734375" gradientUnits="userSpaceOnUse">
<stop offset="0" stop-color="#98D6FA"  />
<stop offset="1" stop-color="#47B0F1"  />
</linearGradient>
<linearGradient id="linear_fill_OH8qfGM_Or1OxqK-Sf-7Y" x1="74.99422454833984" y1="609.16064453125" x2="90.04740905761719" y2="617.3740234375" gradientUnits="userSpaceOnUse">
<stop offset="0.0315726754" stop-color="#AFDEF9"  />
<stop offset="1" stop-color="#7CC9F9"  />
</linearGradient>
<linearGradient id="linear_fill_tlmI6m-u-KJ4gBoW36Qvi" x1="201.77064514160156" y1="808.375732421875" x2="225.6692352294922" y2="671.0498046875" gradientUnits="userSpaceOnUse">
<stop offset="0" stop-color="#98D6FA"  />
<stop offset="1" stop-color="#47B0F1"  />
</linearGradient>
<linearGradient id="linear_fill_pO08Dj3UUuFbVE01pHeM5" x1="227.05975341796875" y1="626.1259765625" x2="237.64739990234375" y2="638.506591796875" gradientUnits="userSpaceOnUse">
<stop offset="0.0315726754" stop-color="#AFDEF9"  />
<stop offset="1" stop-color="#7CC9F9"  />
</linearGradient>
<linearGradient id="linear_fill_E6DWSI2Wpgw7pd1hXiEYq" x1="209.11863708496094" y1="720.83203125" x2="216.34645080566406" y2="722.0791015625" gradientUnits="userSpaceOnUse">
<stop offset="0.0315726754" stop-color="#AFDEF9"  />
<stop offset="1" stop-color="#7CC9F9"  />
</linearGradient>
<linearGradient id="linear_fill_cjKCbZrjEbovY_7xvVa7G" x1="948.377197265625" y1="779.716796875" x2="932.218017578125" y2="751.8310546875" gradientUnits="userSpaceOnUse">
<stop offset="0" stop-color="#98D6FA"  />
<stop offset="1" stop-color="#47B0F1"  />
</linearGradient>
<linearGradient id="linear_fill_7x9Zv7Ob5-cYID2Lpk1mF" x1="939.6251220703125" y1="776.8017578125" x2="962.4447021484375" y2="751.6552734375" gradientUnits="userSpaceOnUse">
<stop offset="0" stop-color="#98D6FA"  />
<stop offset="1" stop-color="#47B0F1"  />
</linearGradient>
<linearGradient id="linear_fill_WMR-gn1bfQcCBlCQrUuTS" x1="953.0519409179688" y1="775.840576171875" x2="992.947265625" y2="764.550048828125" gradientUnits="userSpaceOnUse">
<stop offset="0" stop-color="#98D6FA"  />
<stop offset="1" stop-color="#47B0F1"  />
</linearGradient>
<linearGradient id="linear_fill_0o2nXzlVPqrIglxsYhSrf" x1="896" y1="786.319091796875" x2="947.8363037109375" y2="774.8056640625" gradientUnits="userSpaceOnUse">
<stop offset="0" stop-color="#98D6FA"  />
<stop offset="1" stop-color="#47B0F1"  />
</linearGradient>
<linearGradient id="linear_fill_ealx2N2G9bvZFRDVcXtz-" x1="941" y1="792.2626953125" x2="973.29150390625" y2="785.4072265625" gradientUnits="userSpaceOnUse">
<stop offset="0" stop-color="#98D6FA"  />
<stop offset="1" stop-color="#47B0F1"  />
</linearGradient>
<linearGradient id="linear_fill_bM2XWlGwbrcCxxNVmew5u" x1="289.5845642089844" y1="61.5908203125" x2="316.5569763183594" y2="130.60205078125" gradientUnits="userSpaceOnUse">
<stop offset="0" stop-color="#98D6FA"  />
<stop offset="1" stop-color="#47B0F1"  />
</linearGradient>
<linearGradient id="linear_fill_qbQ_98GB98xZ-2en9BffC_0" x1="267.0856018066406" y1="102.92041015625" x2="360.84552001953125" y2="163.40380859375" gradientUnits="userSpaceOnUse">
<stop offset="0" stop-color="#98D6FA"  />
<stop offset="1" stop-color="#47B0F1"  />
</linearGradient>
<linearGradient id="linear_fill_hcqjXXYNi8MOyyKTMuxgn" x1="314.8179016113281" y1="227.4501953125" x2="443.5646057128906" y2="174.667724609375" gradientUnits="userSpaceOnUse">
<stop offset="0" stop-color="#98D6FA"  />
<stop offset="1" stop-color="#47B0F1"  />
</linearGradient>
<linearGradient id="linear_fill_hiLiqh6gdI2doRLztGbtf" x1="142.86741638183594" y1="298.924560546875" x2="438.0361022949219" y2="191.491943359375" gradientUnits="userSpaceOnUse">
<stop offset="0" stop-color="#98D6FA"  />
<stop offset="1" stop-color="#47B0F1"  />
</linearGradient>
<linearGradient id="linear_fill_lru4_ugAox9ob34amYEai" x1="252.6392822265625" y1="260.529541015625" x2="532.701904296875" y2="185.107421875" gradientUnits="userSpaceOnUse">
<stop offset="0" stop-color="#98D6FA"  />
<stop offset="1" stop-color="#47B0F1"  />
</linearGradient>
<linearGradient id="linear_fill_BvPn8bf-mlLPPE2zB3b8C" x1="604.9625244140625" y1="1043.77685546875" x2="108.19261169433594" y2="-673.927490234375" gradientUnits="userSpaceOnUse">
<stop offset="0" stop-color="#98D6FA" stop-opacity="0" />
<stop offset="1" stop-color="#47B0F1"  />
</linearGradient>
<linearGradient id="linear_fill_GhOUXsg1zdh3LOEvGDyLz" x1="285.2037353515625" y1="53.72509765625" x2="293.6782531738281" y2="69.560546875" gradientUnits="userSpaceOnUse">
<stop offset="0" stop-color="#98D6FA"  />
<stop offset="1" stop-color="#47B0F1"  />
</linearGradient>
<linearGradient id="linear_fill_bkk_VJ_SgJN2hrJX0Rutr" x1="327.2666320800781" y1="374.532470703125" x2="376.4777526855469" y2="311.140380859375" gradientUnits="userSpaceOnUse">
<stop offset="0" stop-color="#98D6FA"  />
<stop offset="1" stop-color="#47B0F1"  />
</linearGradient>
<linearGradient id="linear_fill_BFoozLWJZX-ane6AKITqv" x1="402.2721862792969" y1="620.908935546875" x2="411.94720458984375" y2="550.48193359375" gradientUnits="userSpaceOnUse">
<stop offset="0" stop-color="#98D6FA"  />
<stop offset="1" stop-color="#47B0F1"  />
</linearGradient>
<linearGradient id="linear_fill_GRwB9UBf5GSS5IFcvfrpV" x1="439.7094421386719" y1="456.452880859375" x2="476.10919189453125" y2="407.87158203125" gradientUnits="userSpaceOnUse">
<stop offset="0" stop-color="#98D6FA"  />
<stop offset="1" stop-color="#47B0F1"  />
</linearGradient>
<linearGradient id="linear_fill_Zfag0Nv0K6P12FaxzyVwZ" x1="816.457763671875" y1="755.120849609375" x2="567.2102661132812" y2="790.150390625" gradientUnits="userSpaceOnUse">
<stop offset="0" stop-color="#F5DDA7"  />
<stop offset="1" stop-color="#FA9A41"  />
</linearGradient>
<linearGradient id="linear_fill_1lH7pwrF-cUZAFBU95kdM" x1="701.6572875976562" y1="573.00146484375" x2="766.2413330078125" y2="573.00146484375" gradientUnits="userSpaceOnUse">
<stop offset="0" stop-color="#1D181C"  />
<stop offset="0.3" stop-color="#2C2422"  />
<stop offset="0.5" stop-color="#42352C"  />
<stop offset="0.7" stop-color="#57352C"  />
<stop offset="1" stop-color="#923629"  />
</linearGradient>
<linearGradient id="linear_fill_Nf1PnM__TV5nQqSLS4gVB" x1="651.6528930664062" y1="599.46435546875" x2="718.6170043945312" y2="599.46435546875" gradientUnits="userSpaceOnUse">
<stop offset="0" stop-color="#1D181C"  />
<stop offset="0.3" stop-color="#2C2422"  />
<stop offset="0.5" stop-color="#42352C"  />
<stop offset="0.7" stop-color="#57352C"  />
<stop offset="1" stop-color="#923629"  />
</linearGradient>
<linearGradient id="linear_fill_6NkLHWaNxqblFMDJbHziD" x1="596.4874267578125" y1="415.583984375" x2="735.0762939453125" y2="415.583984375" gradientUnits="userSpaceOnUse">
<stop offset="0" stop-color="#FFB859"  />
<stop offset="1" stop-color="#F97B61"  />
</linearGradient>
<linearGradient id="linear_fill_5kheBxHpZMqCaQSEEQmWM" x1="653.1591796875" y1="410.9443359375" x2="753.207275390625" y2="410.9443359375" gradientUnits="userSpaceOnUse">
<stop offset="0" stop-color="#FFB859"  />
<stop offset="1" stop-color="#F97B61"  />
</linearGradient>
<linearGradient id="linear_fill_dtLRM4MLsaOfb3ZmvQJ_F" x1="615.9445190429688" y1="439.1171875" x2="703.4803466796875" y2="439.1171875" gradientUnits="userSpaceOnUse">
<stop offset="0" stop-color="#FFB859"  />
<stop offset="1" stop-color="#F97B61"  />
</linearGradient>
</defs>
</svg>
