<svg xmlns="http://www.w3.org/2000/svg" xmlns:xlink="http://www.w3.org/1999/xlink" width="1024" height="1024" viewBox="0 0 1024 1024" fill="none">
<g opacity="0">
<path d="M0 0L0 1024L1024 1024L1024 0L0 0Z"   fill="#FFFFFF" >
</path>
</g>
<g opacity="0.05">
<path d="M848.951 778.902C792.88 804.056 430.191 876.18 212.995 802.041C108.115 757.125 84.4698 614.862 76.7968 581.767C69.1238 548.672 19.1769 333.146 160.398 303.513C301.619 273.879 385.048 308.393 447.098 248.052C509.149 187.71 524.624 197.614 575.59 201.605C626.557 205.596 685.626 162.039 705.475 148.955C725.324 135.872 904.534 51.6934 950.351 303.513C957.592 412.384 963.61 530.497 912.913 575.237C862.216 619.978 913.839 660.151 950.351 664.615C986.863 669.08 933.282 745.526 848.951 778.902Z"   fill="#47B0F1" >
</path>
</g>
<g opacity="0.100000001">
<path d="M77.5 329L109 329C112.785 329 115.869 325.995 115.996 322.241L116 322C116 318.215 112.995 315.131 109.241 315.004L109 315L106 315L106 314.85C102.577 314.155 100 311.129 100 307.5L100 306.5C100 302.358 103.358 299 107.5 299L186.5 299C190.642 299 194 302.358 194 306.5L194 307.5C194 311.642 190.642 315 186.5 315L155 315C151.215 315 148.131 318.005 148.004 321.759L148 322C148 325.785 151.005 328.869 154.759 328.996L155 329L158 329L158.001 329.15C161.424 329.845 164 332.872 164 336.5L164 337.5C164 341.642 160.642 345 156.5 345L77.5 345C73.3579 345 70 341.642 70 337.5L70 336.5C70 332.358 73.3579 329 77.5 329Z"   fill="url(#linear_fill_gKwagzRdEIi6Jr5doNrts)" >
</path>
</g>
<g opacity="0.100000001">
<path d="M809 159C812.785 159 815.869 155.995 815.996 152.241L816 152C816 148.215 812.995 145.131 809.241 145.004L809 145L806 145L806 144.85C802.577 144.155 800 141.129 800 137.5L800 136.5C800 132.358 803.358 129 807.5 129L886.5 129C890.642 129 894 132.358 894 136.5L894 137.5C894 141.642 890.642 145 886.5 145L855 145C851.215 145 848.131 148.005 848.004 151.759L848 152C848 155.785 851.005 158.869 854.759 158.996L855 159L858 159L858.001 159.15C861.424 159.845 864 162.872 864 166.5L864 167.5C864 171.642 860.642 175 856.5 175L777.5 175C773.358 175 770 171.642 770 167.5L770 166.5C770 162.358 773.358 159 777.5 159L809 159Z"   fill="url(#linear_fill_k7DLTM65zZTKAPZjzOlpI)" >
</path>
</g>
<path d="M992 795C992 819.23 949.553 839.8 890.611 847.132C877.644 850.885 863.205 854.433 847.453 857.746C847.815 859.812 848 861.898 848 864C848 915.915 735.176 958 596 958C471.347 958 367.833 924.24 347.587 879.894C180.198 867.129 62 835.721 62 799C62 750.951 264.367 712 514.517 712C645.621 712 763.778 722.788 846.303 740.013C927.064 740.66 992 765.031 992 795Z"   fill="url(#linear_fill_AP4oAv8TZr0nc9zkYC2Hu)" >
</path>
<path d="M686.605 226.649L686.605 226.552C681.28 211.514 663.91 204.438 649.174 206.622C660.101 199.827 678.138 198.018 686.608 208.435L686.608 208.526C695.066 198.199 713.201 199.921 724.043 206.713C709.32 204.629 691.946 211.695 686.608 226.643L686.605 226.649Z"   fill="url(#linear_fill_brvTHHIPJhD2LDrh7JApw)" >
</path>
<path d="M770.034 214.109L770.034 214.045C766.335 203.621 754.302 198.726 744.087 200.23C751.659 195.522 764.164 194.266 770.034 201.487L770.034 201.55C775.905 194.393 788.466 195.586 795.982 200.294C785.766 198.85 773.74 203.748 770.034 214.109Z"   fill="url(#linear_fill_9V2wsF7dXj-rwJ5JSfDMU)" >
</path>
<path d="M735.242 179.631L735.242 179.567C731.542 169.143 719.51 164.248 709.295 165.752C716.866 161.044 729.372 159.788 735.242 167.009L735.242 167.072C741.113 159.915 753.674 161.108 761.189 165.816C750.974 164.372 738.948 169.27 735.242 179.631Z"   fill="url(#linear_fill_hQ5_AALQECGb9pqHgnaJt)" >
</path>
<path d="M840.723 220.069L840.723 220.025C838.16 212.801 829.815 209.404 822.736 210.449C827.986 207.185 836.654 206.314 840.723 211.32L840.723 211.364C844.795 206.401 853.501 207.229 858.71 210.492C851.63 209.487 843.285 212.888 840.723 220.069Z"   fill="url(#linear_fill_Q1GZCe6HqMusbSCr2WnRa)" >
</path>
<path d="M253.921 597.526C273.133 597.526 288.76 603.547 300.803 615.59C310.409 625.339 315.211 636.952 315.211 650.429L315.211 739.246C315.211 755.59 310.337 767.705 300.588 775.59C289.979 784.336 277.434 788.708 262.953 788.708L153.577 788.709C152.917 788.898 152.22 789 151.5 789L72.5 789C68.3579 789 65 785.642 65 781.5L65 780.5C65 776.358 68.3579 773 72.5 773L104 773C107.785 773 110.869 769.995 110.996 766.241L111 766C111 764.513 110.536 763.134 109.745 762L102.5 762C98.3579 762 95 758.642 95 754.5L95 753.5C95 749.358 98.3579 746 102.5 746L181.5 746C182.282 746 183.037 746.12 183.746 746.342L250.695 746.343C263.742 746.343 270.265 738.529 270.265 722.902L270.265 660.966C270.265 646.916 263.742 639.891 250.695 639.891L174.996 639.891C156.215 639.891 141.018 633.941 129.405 622.042C120.516 613.009 116.072 600.178 116.072 583.547L116.072 516.02C116.072 512.52 116.279 509.18 116.695 506L72.5 506C68.3579 506 65 502.642 65 498.5L65 497.5C65 493.358 68.3579 490 72.5 490L104 490C107.785 490 110.869 486.995 110.996 483.241L111 483C111 479.215 107.995 476.131 104.241 476.004L104 476L101 476L101 475.85C97.5768 475.155 95 472.129 95 468.5L95 467.5C95 463.358 98.3579 460 102.5 460L181.5 460C181.93 460 182.351 460.036 182.761 460.106L316.072 460.106L316.072 502.472L183.384 502.472C175.355 502.472 169.835 503.905 166.824 506.773C162.953 510.5 161.018 516.235 161.018 523.977L161.018 578.601C161.018 583.762 163.025 588.278 167.039 592.149C170.91 595.733 176.358 597.526 183.384 597.526L253.921 597.526Z"   fill="url(#linear_fill_puM1bZGD_H7mYMawKQ8KR)" >
</path>
<path d="M490.072 789.106C412.752 789.106 350.072 726.426 350.072 649.106C350.072 571.786 412.752 509.106 490.072 509.106C567.392 509.106 630.072 571.786 630.072 649.106C630.072 726.426 567.392 789.106 490.072 789.106ZM490.072 745.106C437.052 745.106 394.072 702.126 394.072 649.106C394.072 596.087 437.052 553.106 490.072 553.106C543.091 553.106 586.072 596.087 586.072 649.106C586.072 702.126 543.091 745.106 490.072 745.106Z" fill-rule="evenodd"  fill="url(#linear_fill_XtxVQSoBa9NzxQPXnE7uQ)" >
</path>
<path d="M850.05 773C830.615 783.216 808.481 789 785 789C707.68 789 645 726.32 645 649C645 571.68 707.68 509 785 509C807.252 509 828.288 514.192 846.97 523.43C848.34 521.938 850.312 521 852.5 521L931.5 521C935.642 521 939 524.358 939 528.5L939 529.5C939 533.642 935.642 537 931.5 537L900 537C896.215 537 893.127 540.005 893 543.76L893 544C893 547.785 896.005 550.873 899.76 551L903 551L903 551.15C906.423 551.845 909 554.872 909 558.5L909 559.5C909 563.642 905.642 567 901.5 567L898.48 567C915.162 590.047 925 618.374 925 649C925 677.877 916.253 704.71 901.27 727L917.5 727C921.642 727 925 730.358 925 734.5L925 735.5C925 739.642 921.642 743 917.5 743L888.75 743C885.787 746.268 882.667 749.394 879.41 752.37C880.355 754.996 882.832 756.901 885.76 757L889 757L889 757.15C892.423 757.845 895 760.872 895 764.5L895 765.5C895 769.642 891.642 773 887.5 773L850.05 773ZM785 745C731.981 745 689 702.019 689 649C689 595.981 731.981 553 785 553C795.489 553 805.583 554.679 815.03 557.79C815.008 558.023 815 558.262 815 558.5L815 559.5C815 563.642 818.358 567 822.5 567L834.94 567C862.559 583.858 881 614.275 881 649C881 681.132 865.21 709.575 840.97 727L838.5 727C834.795 727 831.715 729.686 831.11 733.22C817.424 740.729 801.712 745 785 745Z" fill-rule="evenodd"  fill="url(#linear_fill_qG9M1ZVkqmqk5hrOO8-5y)" >
</path>
<path d="M303.862 710.343C304.761 721.802 313.671 734.783 335.995 727.364C350.878 722.418 361.096 730.704 366.649 752.222C383.432 774.457 412.905 783.339 455.066 778.868C497.227 774.398 494.544 754.955 447.018 720.539C434.095 715.436 424.229 712.284 417.42 711.083C410.611 709.883 407.272 702.453 407.402 688.793C407.428 680.246 401.239 674.004 388.835 670.067C376.432 666.13 371.245 659.882 373.274 651.323C365.051 639.206 355.239 637.476 343.837 646.132C332.435 654.789 322.737 655.622 314.743 648.631C288.264 636.728 276.37 642.572 279.059 666.163C280.596 673.479 283.362 678.048 287.356 679.869C297.76 692.546 303.262 702.703 303.862 710.343Z"   fill="url(#linear_fill_AH5iwwF9YwzfeRo6fUP5X)" >
</path>
<path d="M352.59 686.877C350.604 676.461 348.229 668.015 345.464 661.539C341.356 651.919 354.047 677.574 354.212 688.047L386.82 709.812C386.787 709.769 386.756 709.726 386.727 709.683C387.627 695.676 387.264 685.898 385.64 680.35C387.82 683.263 390.143 704.151 388.852 711.169L418.842 731.185C418.674 730.986 418.566 730.852 418.566 730.852C418.566 730.852 420.11 719.284 418.745 713.455C420.101 715.098 421.003 727.188 420.611 732.367L445.36 748.886L442.224 752.021L416.671 733.928C409.767 738.007 400.298 738.623 395.721 738.195C404.184 737.42 410.367 735.478 414.271 732.368C414.958 732.915 415.63 733.345 416.287 733.658L344.336 682.706C344.496 682.885 344.647 683.07 344.788 683.261C334.124 684.764 324.553 684.12 316.075 681.329C316.755 679.981 328.026 685.247 342.903 681.694L313.499 660.872L352.607 686.976L352.59 686.877Z"   fill="url(#linear_fill_z6z01RSePIamaL7SbAsZN)" >
</path>
<path d="M346.987 723.141C355.526 723.386 366.645 718.452 380.342 708.338C380.819 708.895 381.418 709.494 382.14 710.135C369.201 720.356 355.307 724.382 346.987 723.141Z"   fill="url(#linear_fill_Ay-J4fHO3uYNXcpNOtn_c)" >
</path>
<path d="M343.422 592.629C317.359 574.893 305.265 579.353 307.139 606.01C312.153 625.105 315.442 637.87 313.798 649.574C312.153 661.278 317.294 683.396 343.422 692.472C360.841 698.523 365.733 707.109 358.099 718.229C354.266 735.303 375.393 747.558 421.478 754.993C490.607 766.146 474.136 740.517 456.364 712.737C443.506 699.867 441.785 692.012 441.785 682.176C441.785 672.34 451.196 656.263 424.156 649.574C412.28 646.874 406.054 634.998 405.477 613.946C403.608 603.365 392.273 600.719 371.47 606.01C362.217 607.789 352.867 603.328 343.422 592.629Z"   fill="url(#linear_fill_Lz09ZRAQPjL96PxSzIbqj)" >
</path>
<path d="M379.429 708.832C387.502 710.81 396.067 709.449 405.123 704.749L381.74 673.605C381.864 673.844 381.997 674.09 382.14 674.343C366.578 679.795 350.42 680.441 342.957 676.559C350.951 679.572 363.641 678.071 381.025 672.059L380.67 672.181L354.612 637.471C354.665 637.61 354.714 637.75 354.758 637.891C343.31 638.596 334.171 634.953 327.342 626.962C328.423 625.909 335.726 636.527 353.381 635.836L331.567 606.78L360.277 643.281L360.364 643.077C363.502 635.473 364.11 627.792 362.19 620.036L362.178 619.992L362.242 620.187C364.147 626.041 367.646 633.045 361.691 645.077L386.019 676.009L386.214 675.737C391.028 668.869 393.436 659.851 393.436 648.684C394.553 652.162 394.577 668.133 387.637 678.064L409.193 705.47C410.555 703.354 413.959 697.402 413.959 690.764C414.678 695.336 414.727 701.472 410.802 707.515L442.615 747.962L437.569 747.962L406.816 707.004C391.923 713.361 383.566 710.703 379.429 708.832Z" fill-rule="evenodd"  fill="url(#linear_fill_3lD_KCZ3zW5AIHkq1qM6x)" >
</path>
<path d="M459.265 598.082C463.12 612.618 457.032 621.859 476.944 628.466C490.218 632.871 492.227 642.094 482.97 656.133C479.103 664.967 481.96 670.614 491.539 673.073C501.119 675.532 499.967 685.314 488.083 702.418C483.963 711.794 483.963 718.06 488.083 721.214C494.262 725.945 506.135 740.133 491.539 767.712C476.944 795.291 442.555 773.873 437.399 760.906C432.243 747.939 442.555 730.077 437.399 721.214C432.243 712.351 402.184 709.299 410.215 682.716C416.898 671.84 426.203 668.697 416.861 650.178C407.52 631.659 405.148 639.1 416.861 620.858C421.976 615.616 427.103 606.605 432.243 593.825C442.305 579.841 451.312 581.26 459.265 598.082Z"   fill="url(#linear_fill_C438UtTP1lcIfP0Yb0TuV)" >
</path>
<path d="M472.509 773.406L467.235 742.544C459.469 740.546 452.338 734.286 449.403 730.747C455.935 736.183 461.681 739.182 466.641 739.744C466.74 740.616 466.911 741.395 467.154 742.081L452.305 655.176C452.292 655.415 452.268 655.653 452.232 655.888C443.629 649.41 437.317 642.187 433.295 634.219C434.73 633.746 438.975 645.44 452.008 653.447L445.94 617.932L455.134 664.044L455.192 663.961C461.153 655.192 465.446 647.54 468.07 641.006C471.969 631.299 462.801 658.413 455.512 665.936L463.179 704.384C463.187 704.33 463.195 704.277 463.205 704.227C473.745 694.958 480.403 687.788 483.177 682.716C482.659 686.317 469.531 702.73 463.656 706.779L470.709 742.139C470.731 741.879 470.75 741.708 470.75 741.708C470.75 741.708 480.021 734.621 483.177 729.534C482.975 731.654 475.064 740.841 471.124 744.225L476.944 773.406L472.509 773.406Z"   fill="url(#linear_fill__9wflg4R4XNG2S32MrfVg)" >
</path>
<path d="M425.588 685.642C431.453 691.854 442.804 696.227 459.641 698.76C459.584 699.491 459.584 700.339 459.641 701.302C443.265 699.38 430.594 692.402 425.588 685.642Z"   fill="url(#linear_fill_YRoGxlVgEDa5jEB8DTEAB)" >
</path>
<path d="M917.396 807.516C920.302 785.313 912.837 773.352 895 771.632C919.142 769.325 935.124 784.017 935.382 807.516C930.377 807.691 924.382 807.691 917.396 807.516Z"   fill="url(#linear_fill_ix1F5usU0e7R2Fw6sGWPh)" >
</path>
<path d="M929.121 807.647C933.834 785.241 928.037 768.692 911.731 758C932.552 764.567 947.511 774.435 952.373 807.647C946.019 808.118 938.268 808.118 929.121 807.647Z"   fill="url(#linear_fill_C2zzHY9IUYzQQEi4bYXYm)" >
</path>
<path d="M956.068 808C953.983 786.704 961.628 774.503 979 771.395C962.886 770.987 944.911 769.906 932.052 808C942.95 807.65 950.955 807.65 956.068 808Z"   fill="url(#linear_fill_1Zywr2jdKO-qUTjezmMIC)" >
</path>
<path d="M906.412 821.999C923.257 821.999 936 822.409 936 806.609C936 790.809 922.345 778 905.5 778C888.655 778 875 790.809 875 806.609C875 822.409 889.568 821.999 906.412 821.999Z"   fill="url(#linear_fill_K65__vOCs7dFy3FNoUf7K)" >
</path>
<path d="M939.568 821.999C950.062 821.999 958 822.251 958 812.555C958 802.86 949.493 795 939 795C928.507 795 920 802.86 920 812.555C920 822.251 929.075 821.999 939.568 821.999Z"   fill="url(#linear_fill_opas1Su0QG1t92YmllzYN)" >
</path>
<path d="M111.905 785.629C110.226 777.987 105.324 772.645 97.1975 769.604C87.9174 766.62 82.8331 763.074 88.6401 760.503C93.5438 760.114 104.002 756.295 111.905 779.106C112.455 781.316 112.455 783.49 111.905 785.629Z"   fill="url(#linear_fill_JT3VTsMt-5zENMLhltR2Q)" >
</path>
<path d="M112.318 786.841C107.43 768.597 101.878 755.278 95.6616 746.883C91.0969 741.146 91.4167 732.937 95.6616 731.081C100.007 730.598 108.015 729.851 114.045 761.292C114.425 763.454 116.55 776.106 114.045 784.271C113.674 785.392 113.098 786.248 112.318 786.841Z"   fill="url(#linear_fill_0RTTXGyxdQC6NLGkBmn5y)" >
</path>
<path d="M113.446 782.72C115.657 774.557 115.376 763.906 112.604 750.767C108.365 738.029 101.128 722.361 114.318 722C119.67 722.728 126.131 728.337 123.69 756.293C122.202 767.574 119.614 774.238 116.898 782.72C115.951 783.249 114.8 783.249 113.446 782.72Z"   fill="url(#linear_fill_sxguRGKsecYTpQ_1SioaB)" >
</path>
<path d="M116.028 785.891C115.144 762.808 119.368 746.243 128.702 736.194C131.223 732.837 140.812 729.692 140.775 740.218C139.774 744.743 137.632 754.406 125.28 769.148C121.211 774.468 118.536 782.243 118.51 784.066C118.493 785.282 117.666 785.89 116.028 785.891Z"   fill="url(#linear_fill_8O-twwzoFA13yxujGnCX-)" >
</path>
<path d="M68 788.939C77.2429 787.216 82.3403 785.753 83.292 784.551C84.7197 782.748 97.2967 775.005 105.14 781.527C106.847 779.333 112.322 777.626 115.456 781.527C116.889 775.368 125.833 771.424 129.722 772.063C134.102 771.72 147.034 771.863 148 788.939C144.472 789.021 117.805 789.021 68 788.939Z"   fill="url(#linear_fill_7VDfinpqqQ67lq30OoScW)" >
</path>
<path d="M806.529 312.099C805.711 310.431 804.668 308.889 803.429 307.509C799.446 302.916 793.869 300.036 787.849 299.469C781.633 298.709 775.448 301.098 771.329 305.859C768.349 309.333 766.494 313.649 766.019 318.219C766.005 318.646 766.007 319.075 766.008 319.502C766.008 319.628 766.009 319.753 766.009 319.879C761.035 317.325 757.066 333.329 768.499 332.881C769.462 335.394 770.697 337.809 772.189 340.079C773.317 341.998 774.742 343.656 776.389 345.009L776.309 357.149L796.749 356.869L796.709 346.519C800.627 343.666 803.383 338.935 805.909 335.239C806.328 334.624 806.72 333.828 807.079 332.889C817.073 332.519 813.804 318.422 809.209 319.679L809.199 319.509C809.146 315.359 808.336 311.934 806.429 311.389L806.589 312.219L806.529 312.099ZM807.036 314.419L807.046 314.569L806.586 312.219L806.766 312.599L806.856 312.899C806.985 313.395 807.015 313.906 807.036 314.419ZM807.054 314.726C807.085 315.545 807.123 316.358 807.534 317.096L807.044 314.566L807.054 314.726Z" fill-rule="evenodd"  fill="#EBB0B0" >
</path>
<path d="M781.825 280.057C778.576 279.593 768.766 282.039 766.631 284.82C762.446 287.965 757.006 295.618 755.79 305.217C754.538 314.833 759.484 319.607 763.605 326.912C767.41 324.501 768.339 318.938 771.031 315.323C774.763 310.935 779.466 307.475 784.769 305.217C796.176 303.542 801.641 303.542 806.777 313.874C806.777 313.874 807.642 316.483 809.373 321.701C816.406 314.886 818.964 292.119 805.652 286.362C804.163 284.542 800.999 284.059 796.744 283.997C793.657 283.917 793.309 285.099 791.731 284.82C790.153 284.542 787.829 280.798 781.825 280.057Z"   fill="#131322" >
</path>
<path d="M810.919 490.695C797.145 497.746 786.495 496.428 771.406 494.639C768.465 494.276 751.682 479.534 749.476 477.348C747.71 475.579 738.916 456.214 736.918 450.88C734.92 445.545 731.878 435.904 731.646 430.127C731.03 414.759 729.999 388.721 729.784 369.44C742.441 350.824 763.074 352.377 776.772 348.537C780.007 350.554 783.81 353.948 787.454 354.019C790.211 354.178 793.971 350.2 796.375 348.537C807.434 349.059 827.484 354.725 844.459 367.743C844.459 418.08 839.46 427.05 832.975 455.383C832.797 456.623 814.435 488.882 810.919 490.695Z"   fill="url(#linear_fill_7L1w-cWXUR5Ti1IhuzgOv)" >
</path>
<path     fill="url(#linear_fill_tKUfn77P86pxGAhkalHxp_0)"  d="M768.73 405.377C768.73 407.586 770.521 409.377 772.73 409.377L798.25 409.377C800.459 409.377 802.25 407.586 802.25 405.377L802.25 363.977C802.25 361.768 800.459 359.977 798.25 359.977L772.73 359.977C770.521 359.977 768.73 361.768 768.73 363.977L768.73 405.377">
</path>
<path d="M758.403 403.881C760.61 397.243 763.509 391.953 767.101 388.011C770.713 385.817 770.671 387.43 769.138 389.092C771.255 388.492 780.709 385.209 783.119 399.789C781.449 405.217 775.298 414.755 766.031 415.764C760.672 415.562 758.13 411.601 758.403 403.881Z"   fill="#EFBA9E" >
</path>
<path d="M726.338 369.915C734.138 360.438 741.675 359.545 748.95 367.237C757.209 375.186 753.758 426.484 748.95 458.184C737.736 471.912 723.715 463.63 719.95 452.284C711.781 417.316 713.91 389.86 726.338 369.915Z"   fill="url(#linear_fill_MCDKHNqwY0ixIL1KKQ5Jq)" >
</path>
<path d="M728.53 446.823C731.833 431.577 741.414 417.68 757.274 405.129C763.007 402.988 769.509 405.034 771.046 412.854C772.678 417.605 764.312 455.582 744.907 465.342C730.938 468.202 725.479 462.029 728.53 446.823Z"   fill="url(#linear_fill_T4gNCPcltLhTzE_jqjS4P)" >
</path>
<path d="M814.137 403.881C811.93 397.243 809.031 391.953 805.44 388.011C801.827 385.818 801.869 387.43 803.402 389.093C801.285 388.492 791.831 385.209 789.421 399.789C791.091 405.217 797.242 414.755 806.509 415.764C811.868 415.562 814.411 411.601 814.137 403.881Z"   fill="#EFBA9E" >
</path>
<path d="M846.203 369.915C838.403 360.438 830.865 359.545 823.59 367.237C815.332 375.186 818.783 426.484 823.59 458.184C834.804 471.912 848.826 463.63 852.59 452.284C860.76 417.316 858.63 389.86 846.203 369.915Z"   fill="url(#linear_fill_ywet--7nsK_ksa86sXixJ)" >
</path>
<path d="M844.01 446.823C840.708 431.577 831.126 417.68 815.266 405.129C809.533 402.988 803.031 405.034 801.494 412.854C799.862 417.605 808.228 455.582 827.634 465.342C841.603 468.202 847.062 462.029 844.01 446.823Z"   fill="url(#linear_fill_G86SZrbn6n8Vw3qwvbuc0)" >
</path>
<path d="M716.602 514.467C706.806 480.358 710.389 463.567 727.351 464.094L771.376 487.585C781.694 494.414 791.342 494.414 800.32 487.585C813.789 476.647 828.417 468.817 844.204 464.094C865.074 465.951 865.662 484.933 845.968 521.039C824.466 520.316 783.099 520.316 721.866 521.039C719.571 520.046 717.816 517.855 716.602 514.467Z"   fill="url(#linear_fill_jMvDOFlGMuZJ4jJEpEj68)" >
</path>
<path d="M754.909 592.318C759.674 592.111 761.978 590.879 764.395 592.269C766.811 593.658 769.384 599.953 768.042 603.201C766.341 607.318 762.95 614.233 762.038 616.199C761.125 618.164 754.507 631.519 749.792 632.171C745.076 632.824 743.15 625.489 745.824 616.495C748.499 607.5 753.425 594.893 753.425 594.893L754.909 592.318Z"   fill="#333333" >
</path>
<path d="M813.55 592.318C808.784 592.111 806.481 590.879 804.064 592.269C801.647 593.658 799.075 599.953 800.416 603.201C802.117 607.318 805.508 614.233 806.421 616.199C807.333 618.164 813.951 631.519 818.667 632.171C823.382 632.824 825.309 625.489 822.634 616.495C819.959 607.5 815.033 594.893 815.033 594.893L813.55 592.318Z"   fill="#333333" >
</path>
<path d="M704.703 491.678C704.703 491.678 699.261 463.828 718.651 457.576C738.04 451.325 746.13 463.909 752.168 474.627C754.066 484.868 760.469 523.318 771.377 589.976C764.524 596.35 755.67 598.63 744.815 596.815C740.393 582.18 704.703 491.678 704.703 491.678Z"   fill="url(#linear_fill_dOT45w3gwDOd1qUcQeHaA)" >
</path>
<path d="M863.297 491.678C863.297 491.678 868.739 463.828 849.349 457.576C829.96 451.325 821.87 463.909 815.832 474.627C813.934 484.868 807.531 523.318 796.623 589.976C803.476 596.35 812.33 598.63 823.185 596.815C827.608 582.18 863.297 491.678 863.297 491.678Z"   fill="url(#linear_fill_RqMI4QvnQV3HINEWbmLxd)" >
</path>
<path d="M615.599 330.502L630.135 336.739L637.208 290.044L587.753 318.855L600.73 324.927L632.084 296.667L606.911 327.797L606.577 341.044L615.599 330.502Z"   fill="url(#linear_fill_zNr7iajuuqjYql3EqaBnZ)" >
</path>
<defs>
<linearGradient id="linear_fill_gKwagzRdEIi6Jr5doNrts" x1="53.157958984375" y1="322" x2="132" y2="320.7135009765625" gradientUnits="userSpaceOnUse">
<stop offset="0" stop-color="#98D6FA"  />
<stop offset="1" stop-color="#47B0F1"  />
</linearGradient>
<linearGradient id="linear_fill_k7DLTM65zZTKAPZjzOlpI" x1="753.157958984375" y1="152" x2="832" y2="150.7135009765625" gradientUnits="userSpaceOnUse">
<stop offset="0" stop-color="#98D6FA"  />
<stop offset="1" stop-color="#47B0F1"  />
</linearGradient>
<linearGradient id="linear_fill_AP4oAv8TZr0nc9zkYC2Hu" x1="62" y1="704.3602294921875" x2="992" y2="704.3602294921875" gradientUnits="userSpaceOnUse">
<stop offset="0" stop-color="#FFF5DE"  />
<stop offset="1" stop-color="#FBD2AC"  />
</linearGradient>
<linearGradient id="linear_fill_brvTHHIPJhD2LDrh7JApw" x1="639.005126953125" y1="213.86181640625" x2="686.6083984375" y2="213.2552490234375" gradientUnits="userSpaceOnUse">
<stop offset="0" stop-color="#98D6FA"  />
<stop offset="1" stop-color="#47B0F1"  />
</linearGradient>
<linearGradient id="linear_fill_9V2wsF7dXj-rwJ5JSfDMU" x1="737.03857421875" y1="205.246826171875" x2="770.034423828125" y2="204.82666015625" gradientUnits="userSpaceOnUse">
<stop offset="0" stop-color="#98D6FA"  />
<stop offset="1" stop-color="#47B0F1"  />
</linearGradient>
<linearGradient id="linear_fill_hQ5_AALQECGb9pqHgnaJt" x1="702.246337890625" y1="170.768798828125" x2="735.2421875" y2="170.3486328125" gradientUnits="userSpaceOnUse">
<stop offset="0" stop-color="#98D6FA"  />
<stop offset="1" stop-color="#47B0F1"  />
</linearGradient>
<linearGradient id="linear_fill_Q1GZCe6HqMusbSCr2WnRa" x1="817.849365234375" y1="213.9261474609375" x2="840.722900390625" y2="213.6348876953125" gradientUnits="userSpaceOnUse">
<stop offset="0" stop-color="#98D6FA"  />
<stop offset="1" stop-color="#47B0F1"  />
</linearGradient>
<linearGradient id="linear_fill_puM1bZGD_H7mYMawKQ8KR" x1="38.35107421875" y1="746.2579345703125" x2="190.535888671875" y2="560.2828369140625" gradientUnits="userSpaceOnUse">
<stop offset="0" stop-color="#98D6FA"  />
<stop offset="1" stop-color="#47B0F1"  />
</linearGradient>
<linearGradient id="linear_fill_XtxVQSoBa9NzxQPXnE7uQ" x1="198.646240234375" y1="752.72998046875" x2="490.07177734375" y2="594.4532470703125" gradientUnits="userSpaceOnUse">
<stop offset="0" stop-color="#98D6FA"  />
<stop offset="1" stop-color="#47B0F1"  />
</linearGradient>
<linearGradient id="linear_fill_qG9M1ZVkqmqk5hrOO8-5y" x1="486.003173828125" y1="742.98974609375" x2="792" y2="599.42822265625" gradientUnits="userSpaceOnUse">
<stop offset="0" stop-color="#98D6FA"  />
<stop offset="1" stop-color="#47B0F1"  />
</linearGradient>
<linearGradient id="linear_fill_AH5iwwF9YwzfeRo6fUP5X" x1="243.313720703125" y1="684.3779296875" x2="383.43896484375" y2="700.6710205078125" gradientUnits="userSpaceOnUse">
<stop offset="0" stop-color="#98D6FA"  />
<stop offset="1" stop-color="#47B0F1"  />
</linearGradient>
<linearGradient id="linear_fill_z6z01RSePIamaL7SbAsZN" x1="312.681884765625" y1="647.5035400390625" x2="325.84033203125" y2="648.5306396484375" gradientUnits="userSpaceOnUse">
<stop offset="0.0315726754" stop-color="#AFDEF9"  />
<stop offset="1" stop-color="#7CC9F9"  />
</linearGradient>
<linearGradient id="linear_fill_Ay-J4fHO3uYNXcpNOtn_c" x1="356.659912109375" y1="712.0384521484375" x2="361.51513671875" y2="708.612060546875" gradientUnits="userSpaceOnUse">
<stop offset="0.0315726754" stop-color="#AFDEF9"  />
<stop offset="1" stop-color="#7CC9F9"  />
</linearGradient>
<linearGradient id="linear_fill_Lz09ZRAQPjL96PxSzIbqj" x1="316.71533203125" y1="688.9046630859375" x2="405.857666015625" y2="647.09130859375" gradientUnits="userSpaceOnUse">
<stop offset="0" stop-color="#98D6FA"  />
<stop offset="1" stop-color="#47B0F1"  />
</linearGradient>
<linearGradient id="linear_fill_3lD_KCZ3zW5AIHkq1qM6x" x1="331.611572265625" y1="594.1553955078125" x2="343.8076171875" y2="600.809814453125" gradientUnits="userSpaceOnUse">
<stop offset="0.0315726754" stop-color="#AFDEF9"  />
<stop offset="1" stop-color="#7CC9F9"  />
</linearGradient>
<linearGradient id="linear_fill_C438UtTP1lcIfP0Yb0TuV" x1="434.325439453125" y1="755.55859375" x2="453.687744140625" y2="644.2978515625" gradientUnits="userSpaceOnUse">
<stop offset="0" stop-color="#98D6FA"  />
<stop offset="1" stop-color="#47B0F1"  />
</linearGradient>
<linearGradient id="linear_fill__9wflg4R4XNG2S32MrfVg" x1="454.814453125" y1="607.90087890625" x2="463.392578125" y2="617.9315185546875" gradientUnits="userSpaceOnUse">
<stop offset="0.0315726754" stop-color="#AFDEF9"  />
<stop offset="1" stop-color="#7CC9F9"  />
</linearGradient>
<linearGradient id="linear_fill_YRoGxlVgEDa5jEB8DTEAB" x1="440.27880859375" y1="684.6312255859375" x2="446.134521484375" y2="685.6416015625" gradientUnits="userSpaceOnUse">
<stop offset="0.0315726754" stop-color="#AFDEF9"  />
<stop offset="1" stop-color="#7CC9F9"  />
</linearGradient>
<linearGradient id="linear_fill_ix1F5usU0e7R2Fw6sGWPh" x1="927.377197265625" y1="799.716796875" x2="911.218017578125" y2="771.8310546875" gradientUnits="userSpaceOnUse">
<stop offset="0" stop-color="#98D6FA"  />
<stop offset="1" stop-color="#47B0F1"  />
</linearGradient>
<linearGradient id="linear_fill_C2zzHY9IUYzQQEi4bYXYm" x1="918.625244140625" y1="796.8016357421875" x2="941.44482421875" y2="771.6551513671875" gradientUnits="userSpaceOnUse">
<stop offset="0" stop-color="#98D6FA"  />
<stop offset="1" stop-color="#47B0F1"  />
</linearGradient>
<linearGradient id="linear_fill_1Zywr2jdKO-qUTjezmMIC" x1="932.052001953125" y1="795.8404541015625" x2="971.947265625" y2="784.5501708984375" gradientUnits="userSpaceOnUse">
<stop offset="0" stop-color="#98D6FA"  />
<stop offset="1" stop-color="#47B0F1"  />
</linearGradient>
<linearGradient id="linear_fill_K65__vOCs7dFy3FNoUf7K" x1="875" y1="806.3192138671875" x2="926.83642578125" y2="794.8056640625" gradientUnits="userSpaceOnUse">
<stop offset="0" stop-color="#98D6FA"  />
<stop offset="1" stop-color="#47B0F1"  />
</linearGradient>
<linearGradient id="linear_fill_opas1Su0QG1t92YmllzYN" x1="920" y1="812.2625732421875" x2="952.29150390625" y2="805.4072265625" gradientUnits="userSpaceOnUse">
<stop offset="0" stop-color="#98D6FA"  />
<stop offset="1" stop-color="#47B0F1"  />
</linearGradient>
<linearGradient id="linear_fill_JT3VTsMt-5zENMLhltR2Q" x1="92.017333984375" y1="757.7469482421875" x2="99.2451171875" y2="779.8382568359375" gradientUnits="userSpaceOnUse">
<stop offset="0" stop-color="#98D6FA"  />
<stop offset="1" stop-color="#47B0F1"  />
</linearGradient>
<linearGradient id="linear_fill_0RTTXGyxdQC6NLGkBmn5y" x1="102.740966796875" y1="724.5499267578125" x2="103.80224609375" y2="774.8582763671875" gradientUnits="userSpaceOnUse">
<stop offset="0" stop-color="#98D6FA"  />
<stop offset="1" stop-color="#47B0F1"  />
</linearGradient>
<linearGradient id="linear_fill_sxguRGKsecYTpQ_1SioaB" x1="115.10302734375" y1="715.0006103515625" x2="115.496337890625" y2="770.013916015625" gradientUnits="userSpaceOnUse">
<stop offset="0" stop-color="#98D6FA"  />
<stop offset="1" stop-color="#47B0F1"  />
</linearGradient>
<linearGradient id="linear_fill_8O-twwzoFA13yxujGnCX-" x1="126.826171875" y1="726.9366455078125" x2="128.344482421875" y2="774.550048828125" gradientUnits="userSpaceOnUse">
<stop offset="0" stop-color="#98D6FA"  />
<stop offset="1" stop-color="#47B0F1"  />
</linearGradient>
<linearGradient id="linear_fill_7VDfinpqqQ67lq30OoScW" x1="68" y1="785.190185546875" x2="158.58203125" y2="785.190185546875" gradientUnits="userSpaceOnUse">
<stop offset="0" stop-color="#98D6FA"  />
<stop offset="1" stop-color="#47B0F1"  />
</linearGradient>
<linearGradient id="linear_fill_7L1w-cWXUR5Ti1IhuzgOv" x1="745.799072265625" y1="359.5885009765625" x2="830.1474609375" y2="507.1263427734375" gradientUnits="userSpaceOnUse">
<stop offset="0" stop-color="#FFB859"  />
<stop offset="1" stop-color="#F97B61"  />
</linearGradient>
<linearGradient id="linear_fill_tKUfn77P86pxGAhkalHxp_0" x1="769.42529296875" y1="402.9580078125" x2="785.489990234375" y2="375.0340576171875" gradientUnits="userSpaceOnUse">
<stop offset="0" stop-color="#98D6FA"  />
<stop offset="1" stop-color="#47B0F1"  />
</linearGradient>
<linearGradient id="linear_fill_MCDKHNqwY0ixIL1KKQ5Jq" x1="753.9326171875" y1="359.0008544921875" x2="715.315673828125" y2="359.0008544921875" gradientUnits="userSpaceOnUse">
<stop offset="0" stop-color="#F97B61"  />
<stop offset="1" stop-color="#FFB859"  />
</linearGradient>
<linearGradient id="linear_fill_T4gNCPcltLhTzE_jqjS4P" x1="771.24560546875" y1="402.5006103515625" x2="727.962646484375" y2="402.5006103515625" gradientUnits="userSpaceOnUse">
<stop offset="0" stop-color="#F97B61"  />
<stop offset="1" stop-color="#FFB859"  />
</linearGradient>
<linearGradient id="linear_fill_ywet--7nsK_ksa86sXixJ" x1="818.607666015625" y1="359.0008544921875" x2="857.224609375" y2="359.0008544921875" gradientUnits="userSpaceOnUse">
<stop offset="0" stop-color="#FFB859"  />
<stop offset="1" stop-color="#F97B61"  />
</linearGradient>
<linearGradient id="linear_fill_G86SZrbn6n8Vw3qwvbuc0" x1="801.294677734375" y1="402.5006103515625" x2="844.57763671875" y2="402.5006103515625" gradientUnits="userSpaceOnUse">
<stop offset="0" stop-color="#FFB859"  />
<stop offset="1" stop-color="#F97B61"  />
</linearGradient>
<linearGradient id="linear_fill_jMvDOFlGMuZJ4jJEpEj68" x1="839.847900390625" y1="462.4847412109375" x2="711.22265625" y2="462.4847412109375" gradientUnits="userSpaceOnUse">
<stop offset="0" stop-color="#1D181C"  />
<stop offset="0.3" stop-color="#2C2422"  />
<stop offset="0.5" stop-color="#42352C"  />
<stop offset="0.7" stop-color="#57352C"  />
<stop offset="1" stop-color="#923629"  />
</linearGradient>
<linearGradient id="linear_fill_dOT45w3gwDOd1qUcQeHaA" x1="762.129638671875" y1="451.940185546875" x2="704" y2="451.940185546875" gradientUnits="userSpaceOnUse">
<stop offset="0" stop-color="#1D181C"  />
<stop offset="0.3" stop-color="#2C2422"  />
<stop offset="0.5" stop-color="#42352C"  />
<stop offset="0.7" stop-color="#57352C"  />
<stop offset="1" stop-color="#923629"  />
</linearGradient>
<linearGradient id="linear_fill_RqMI4QvnQV3HINEWbmLxd" x1="805.870361328125" y1="451.940185546875" x2="864" y2="451.940185546875" gradientUnits="userSpaceOnUse">
<stop offset="0" stop-color="#1D181C"  />
<stop offset="0.3" stop-color="#2C2422"  />
<stop offset="0.5" stop-color="#42352C"  />
<stop offset="0.7" stop-color="#57352C"  />
<stop offset="1" stop-color="#923629"  />
</linearGradient>
<linearGradient id="linear_fill_zNr7iajuuqjYql3EqaBnZ" x1="564.080078125" y1="334.41796875" x2="612.48046875" y2="305.589111328125" gradientUnits="userSpaceOnUse">
<stop offset="0" stop-color="#98D6FA"  />
<stop offset="1" stop-color="#47B0F1"  />
</linearGradient>
</defs>
</svg>
